<svg id="Layer_1" data-name="Layer 1" xmlns="http://www.w3.org/2000/svg" viewBox="0 0 1753.65 764.65"><defs><style>.cls-1{fill:#222;}.cls-2{fill:#c55f16;}.cls-3{fill:#807f7e;}.cls-4{fill:#0152a7;}</style></defs><path class="cls-1" d="M1445.11,760.63V876.46l-.15,88.22c0,7.39.1,14.77.15,22.16v7c0,2-.1,3.93-.1,5.89q0,113.14.06,226.27c0,3.6-.34,5.08-4.69,5.07q-534.15-.19-1068.29,0c-4.27,0-4.74-1.35-4.73-5q.18-66.42.07-132.85c0-1.82-.09-3.63-.14-5.44V982.42c0-9.06.13-18.12.13-27.18V806.58c0-1.81-.09-3.62-.14-5.43v-7.21c.05-1.82.12-3.63.12-5.44,0-63.19.19-126.38-.08-189.57-.12-27.09.37-54.06,4.9-80.85,1.68-10,1.88-20.13,4.22-30a33,33,0,0,1,11.76-18.82,9,9,0,0,1,5.71-2.35c3.62-.08,7.24-.49,10.86-.49h1010c12.47.32,20,6,23.75,18.08,3.66,11.64,4,23.79,5.44,35.77,2.15,18.23.91,36.54,1,54.81.16,58.5,0,117,0,175.51,0,1,.1,2.11.15,3.17ZM906.45,575.14H446.59c-7.56,0-6.58-1-6.58,6.38v585c0,7.25-.91,6.34,6.16,6.34h920.15c6.94,0,6.12.84,6.12-5.92V581c0-6.73.83-5.9-6.15-5.9Z" transform="translate(-30.2 -466.42)"/><path class="cls-2" d="M1445.11,760.63l.06-6.92c6.2,0,12.4-.18,18.59.09,3.35.15,5.59-1.06,7.89-3.36q78.94-79.12,157.93-158.19c4.39-4.41,8.71-6.4,15-6.34,33.55.3,67.1.14,100.65.13,2,0,3.92-.15,5.87-.23,4.15,1.07,6.44-1.21,9-4.17,3.62-4.24,10.8-4,14.59-.17a10.57,10.57,0,0,1-.09,15l0,0c-4.18,4.09-11,4.49-14.51.12-2.42-3-4.86-3.58-8.17-2.86-1.65-.13-3.3-.37-5-.37q-51.9,0-103.82-.08a9.67,9.67,0,0,0-7.52,3.13Q1558.85,673.27,1482,750c-.92.93-1.77,2-2.64,2.91,1.13,1.37,2.43.82,3.54.83q46.45.11,92.93.16a7.63,7.63,0,0,0,6.07-2.23q33-33.63,66.2-67.14c2.54-2.49,4.77-4.51,3-9.07-1.94-5,3.57-11.35,9.41-12.13,4.74-.63,10.73,4.19,11.31,9.1.72,6-3.42,11.66-9.16,11.68-3.82,0-6.26,1.46-8,4.62a44,44,0,0,0-3.76,3.21l-61.82,62.35c-2.43,2.43-2.69,3.74-.08,6.32,19.64,19.4,39.11,39,58.63,58.48,2.89,2.63,5.12,5.45,10.21,4.82,5.73-.72,9.83,5,9.51,11.26a10.34,10.34,0,0,1-10.66,9.51c-5.45-.28-11.26-5.57-10.17-10.57,1-4.82-1-7.32-4-10q-30.27-30.3-60.53-60.63a6.79,6.79,0,0,0-5.08-2.41Q1511.07,760.92,1445.11,760.63Z" transform="translate(-30.2 -466.42)"/><path class="cls-2" d="M367.32,793.93v7.21L200,801.91c-2,0-3.74.17-5.33,1.78C180,818.5,165.24,833.22,150.52,848a16.89,16.89,0,0,0-1.58,2.19c-3.84,1.48-3.4,5.24-4.39,8.24a10.44,10.44,0,0,1-19.94-6.21c0-.15.1-.31.16-.46,2.11-5.77,7.78-8.57,13.35-6.28,2.92,1.2,4.89,1,6-2.17,1.71-.44,2.76-1.77,3.93-2.94,13.23-13.22,26.41-26.51,39.74-39.63,2.29-2.25,2.61-3.56.3-6.13-17.24-19.19-34.31-38.54-51.42-57.83-1.76-2-3.43-3.13-6.58-2.24-5.82,1.65-11.93-2.84-12.93-8.85-.89-5.33,4.1-11.28,9.92-11.81s10.8,4.07,11,10.4c.09,2.47.17,4.85,3.09,5.75.28,1.59,1.39,2.64,2.39,3.77l51.35,58a7.56,7.56,0,0,0,6.18,3Q284.21,794.24,367.32,793.93Z" transform="translate(-30.2 -466.42)"/><path class="cls-2" d="M367.32,1078.22v9.55l-43.71,44q-36.15,36.62-72.19,73.33a12.58,12.58,0,0,1-10,4.09q-86.56-1-173.14-1.75c-2,0-3.91.17-5.86.27-2.86-.64-4.93,0-6.93,2.57a9,9,0,0,1-9.71,3.19,11.58,11.58,0,0,1-8.52-9.43c-.45-4.35,2.42-8.84,6.78-10.62a10.26,10.26,0,0,1,12.11,3.27c1.65,2.17,3.1,4,6.15,3.14,12.37.33,24.74.85,37.11,1,46.2.43,92.4.67,138.6,1.17a13.74,13.74,0,0,0,11-4.52q56.58-57.76,113.45-115.24C364,1080.77,365.16,1078.93,367.32,1078.22Z" transform="translate(-30.2 -466.42)"/><path class="cls-2" d="M1445.12,993.86v-7q68.2.07,136.42.06a13.82,13.82,0,0,1,10.78,4.46q34.13,34.77,68.52,69.28c1.48,1.49,3.17,2.77,4.75,4.14a6.13,6.13,0,0,0,6.43,3.86,11.32,11.32,0,0,1,4.37.94,10.16,10.16,0,0,1,6,12.59c-1.6,5.61-6.61,8.51-12.7,7.36-4.63-.87-9-6.47-7.74-11.15,1.15-4.21.1-6.93-3-9.38L1587.1,996.2a6.16,6.16,0,0,0-4.79-2Q1513.72,994.07,1445.12,993.86Z" transform="translate(-30.2 -466.42)"/><path class="cls-2" d="M367.32,982.41v7.31q-50.34,0-100.67-.06a8.21,8.21,0,0,0-6.44,2.44q-43.39,43.17-86.89,86.22a35,35,0,0,0-2.54,3.15c-3,1.4-3.65,3.79-3.79,7-.26,5.83-5.89,10.67-11.18,10.14a10.69,10.69,0,0,1-9.77-11.55c0-.12,0-.23,0-.35.75-5.71,6.38-10.4,12-8.91,4,1.07,6.25-.31,8.56-2.88q44.44-44,88.85-88.09a14,14,0,0,1,10.74-4.51C299.91,982.49,333.61,982.42,367.32,982.41Z" transform="translate(-30.2 -466.42)"/><path class="cls-2" d="M1445.17,876.45v-7c10-.28,20.08.27,30.09-.77,3.49.54,6.33.46,9.15-2.78,4-4.55,10.78-4,14.8.37,3.83,4.12,3.74,11-.18,14.66-4.44,4.07-11.78,4.1-15.18-.88-2.87-4.19-6.36-3.68-10.2-3.52Z" transform="translate(-30.2 -466.42)"/><path class="cls-3" d="M141.19,730c-2.92-.9-3-3.28-3.09-5.75-.23-6.33-5.17-10.94-11-10.4s-10.81,6.48-9.92,11.81c1,6,7.11,10.5,12.93,8.85,3.15-.89,4.82.25,6.58,2.24-11,7.18-23.73,1-26.15-9.89a16.52,16.52,0,0,1,27.72-15.35C143.41,716.71,144.57,723.93,141.19,730Z" transform="translate(-30.2 -466.42)"/><path class="cls-3" d="M1642.63,824.1c3,2.67,5,5.17,4,10-1.09,5,4.72,10.29,10.17,10.57a10.34,10.34,0,0,0,10.66-9.51c.32-6.27-3.78-12-9.51-11.26-5.09.63-7.32-2.19-10.21-4.82,7.21-2.71,14.13-3.14,20.19,2.7a16.55,16.55,0,1,1-27.28,7.36A50.13,50.13,0,0,1,1642.63,824.1Z" transform="translate(-30.2 -466.42)"/><path class="cls-3" d="M62.32,1199.88c-3,.89-4.5-1-6.15-3.14a10.27,10.27,0,0,0-12.11-3.27c-4.36,1.78-7.23,6.27-6.78,10.62a11.57,11.57,0,0,0,8.52,9.43,9,9,0,0,0,9.71-3.19c2-2.61,4.07-3.21,6.93-2.57-2.33,8.57-10,14-18.13,12.72a16.57,16.57,0,0,1,0-32.78C52.64,1186.68,61,1192,62.32,1199.88Z" transform="translate(-30.2 -466.42)"/><path class="cls-3" d="M144.11,843.32c-1.12,3.2-3.09,3.37-6,2.17-5.57-2.29-11.24.51-13.35,6.28a10.44,10.44,0,1,0,19.62,7.13c.06-.15.11-.3.16-.46,1-3,.55-6.76,4.39-8.24,3,6.18.9,11.56-3.15,16.16-4.47,5.08-10.43,6.44-16.88,4.58-6.14-1.77-10.15-6-11.33-12.25-1.31-6.9.68-13,6.64-17,5.71-3.92,11.8-4,17.87-.55C143,841.59,144,842.06,144.11,843.32Z" transform="translate(-30.2 -466.42)"/><path class="cls-3" d="M166.58,1074.89c-2.31,2.57-4.54,4-8.56,2.88-5.6-1.49-11.23,3.2-12,8.91a10.71,10.71,0,0,0,9.39,11.87l.35,0c5.29.53,10.92-4.31,11.18-10.14.14-3.17.82-5.56,3.79-7,3.73,5.63,2.25,11.06-1.11,16-3.79,5.62-9.42,8-16.15,6.92s-11.15-5.14-13.15-11.57-.2-12.33,4.87-16.82,10.91-5.58,17.28-3C163.85,1073.59,165.21,1074.26,166.58,1074.89Z" transform="translate(-30.2 -466.42)"/><path class="cls-3" d="M1654.75,688.71c1.73-3.16,4.17-4.6,8-4.62,5.74,0,9.88-5.66,9.16-11.68-.58-4.91-6.57-9.73-11.31-9.1-5.84.78-11.35,7.09-9.41,12.13,1.75,4.56-.48,6.58-3,9.07-7.75-11.69-1.22-24.22,10-26.77,6.43-1.46,13.89,2,17.31,8a16.08,16.08,0,0,1-2.3,19.65C1668,690.76,1661,692,1654.75,688.71Z" transform="translate(-30.2 -466.42)"/><path class="cls-3" d="M1751.85,593.7c3.31-.72,5.75-.11,8.17,2.86,3.55,4.37,10.33,4,14.51-.12a10.58,10.58,0,0,0,.17-15l0,0c-3.79-3.87-11-4.07-14.59.17-2.51,3-4.8,5.24-9,4.17,2.34-9.12,9.1-14,18.27-13.12a16.43,16.43,0,0,1,14.46,15,16.86,16.86,0,0,1-13.34,17.49C1762.12,607.08,1754.25,602.15,1751.85,593.7Z" transform="translate(-30.2 -466.42)"/><path class="cls-3" d="M1473.6,876.54c3.84-.16,7.33-.67,10.2,3.52,3.4,5,10.74,5,15.18.88,3.92-3.61,4-10.54.18-14.66-4-4.33-10.84-4.92-14.8-.37-2.82,3.24-5.66,3.32-9.15,2.78,2.6-8.53,11.71-12.77,20.69-9.64a16.53,16.53,0,0,1,9.74,21.24l-.09.23a16.42,16.42,0,0,1-30.79-.1C1474.32,879.17,1474,877.83,1473.6,876.54Z" transform="translate(-30.2 -466.42)"/><path class="cls-3" d="M1658.94,1069c3.12,2.45,4.17,5.17,3,9.38-1.29,4.68,3.11,10.28,7.74,11.15,6.09,1.15,11.1-1.75,12.7-7.36a10.16,10.16,0,0,0-6-12.59,11.36,11.36,0,0,0-4.37-.94,6.13,6.13,0,0,1-6.43-3.86c5.45-3.59,10.8-2.24,15.64,1,5.58,3.7,8.33,9.2,7.24,16-1.06,6.62-4.86,11.36-11.34,13.46-6.3,2.06-11.9.48-16.61-4.16s-5.89-10.37-4-16.66A41.72,41.72,0,0,1,1658.94,1069Z" transform="translate(-30.2 -466.42)"/><path class="cls-3" d="M906.45,575.14h459.87c7,0,6.15-.83,6.15,5.9V1167c0,6.76.82,5.92-6.12,5.92H446.17c-7.07,0-6.16.91-6.16-6.34v-585c0-7.36-1-6.38,6.58-6.38Q676.51,575.14,906.45,575.14Zm442.35,358.5.06-56.32V753.16q0-62.05.11-124.1c0-3.15-.88-4.08-4.06-4.07q-79.94.16-159.87.14c-1.51,0-3-.07-4.53-.07H469a17.2,17.2,0,0,1-2.27,0c-2.4-.3-3.16.75-3.07,3.1.15,3.92,0,7.86,0,11.79q0,76.86.1,153.73V989.77q0,76.18-.08,152.38c0,6.72-.91,6,6,6h873a20.57,20.57,0,0,1,2.72,0c2.92.39,3.59-1,3.47-3.67-.18-3.93,0-7.86,0-11.79q0-69.62-.1-139.23v-7.1q.09-26.36.08-52.72Z" transform="translate(-30.2 -466.42)"/><path class="cls-4" d="M1086.49,790.83c-9.47-8.2-17.11-17.61-22-29.43-7.89-19.27-3.41-41.49,12.85-56.66,10.51-9.81,22.77-16.72,35.62-22.86,6-2.84,11.49-6.63,17.44-9.53,8.52-4.15,17.27-7.84,25.89-11.82,4.93-2.28,8.27-6.52,11.69-10.46,6.63-7.62,10.85-17,17-25q79.93,0,159.87-.13c3.18,0,4.06.92,4.06,4.07q-.17,62.06-.11,124.1l-51.44-.37c4.47-8.07,7.63-16.71,11-25.26a15.93,15.93,0,0,0,.6-4,2.86,2.86,0,0,0-1.57-3c-8.33-5.37-16.75-6.44-25.44-.86-11.07,7.1-21.35,15.31-31.58,23.51a435.73,435.73,0,0,0-42.49,38.66,72.09,72.09,0,0,1-41,21.48c-14.65,2.49-29.18,2-43.79,2.3-2.15-3.43-4.45-6.78-6.43-10.31a7.9,7.9,0,0,0-7.72-4.35C1101.51,791.1,1094,790.91,1086.49,790.83Z" transform="translate(-30.2 -466.42)"/><path class="cls-2" d="M463.75,879,632,877.16l271.62-2.82c9.74-.1,19.49,0,29.47,0-.44-2.65-1.73-3.33-2.63-4.25L863.21,802a8.1,8.1,0,0,0-6.3-2.77q-196.59.94-393.18,1.75v-7.3l378.41-1.58h9.77c.5-1.51-.53-2-1.1-2.52q-29.28-29.69-58.62-59.3a38.28,38.28,0,0,0-3.14-2.54c-1.26-2.59-3-3.51-6.08-2.92a11.25,11.25,0,0,1-11.92-6.35c-1.88-4.1-1.28-9.23,1.88-12.2a10.49,10.49,0,0,1,11.68-2.34c4.58,1.75,7.4,5.23,7.48,9.73.06,3.27-.76,6.74,2.68,9q33.11,33.57,66.19,67.17a7.63,7.63,0,0,0,6.07,2.24q78.45-.3,156.89-.52c19-.07,38.09-.23,57.13-.38,1.81,0,3.61-.19,5.42-.3,7.51.09,15,.28,22.52.2a7.9,7.9,0,0,1,7.72,4.35c2,3.53,4.28,6.88,6.43,10.31,11.26,18.94,22.63,37.81,33.7,56.86,2.27,3.9,3.49,3.74,6.48.69q52.25-53.14,104.67-106.11c2.86-2.91,5.8-4.38,9.94-4.23,6.48.23,13,0,19.46-.1l51.44.37v7.13l-55.28.15c-5-.08-10,0-15-.27a7.71,7.71,0,0,0-6.32,2.7q-52,52.82-104.16,105.55c-.84.85-2.44,1.41-1.91,3.34,27.21-.19,54.4.2,81.58-.94,1.81.06,3.62.17,5.43.16l95.61-.72v7l-94.43.87c-.75,0-1.5.13-2.25.19-28.15-.62-56.27.59-85,.64.66,1.34.93,2,1.3,2.63q30.51,50.88,61,101.79c1.29,2.16,2.82,2.68,5.15,2.68q57.09.06,114.18.25v7.1c-38.4-.05-76.79-.16-115.18-.05-4.67,0-7.46-1.64-9.82-5.61q-31.2-52.38-62.67-104.59c-2.87-4.78-2.92-4.78-6.84-.81q-50.68,51.27-101.3,102.61a14.88,14.88,0,0,1-11.57,4.76q-285.43-.15-570.87-.09l-6.8,0v-7.35H809.26q115.65,0,231.29.07a10.55,10.55,0,0,0,8.29-3.46q47.37-48.18,94.92-96.2c.93-.95,1.79-2,2.66-2.91-.89-1.34-2.05-.82-3-.81q-99.54.85-199.08,1.77c-36.13.33-72.25.58-108.38,1q-158.25,1.75-316.51,3.6c-18.59.22-37.18.54-55.77.81C463.74,883.84,463.75,881.4,463.75,879Zm634.47-80.42c-1.81-.07-3.62-.19-5.44-.18q-109,.43-218,.91c-1.09,0-2.39-.57-3.41.7q.52.72,1.11,1.38l69.11,70a7.62,7.62,0,0,0,6,2.29q101.75-.92,203.47-1.78c.81,0,1.85.42,2.53-1-3.54-5.9-7.15-12-10.81-18q-14.65-24.2-29.36-48.39c-1.33-4.56-4-7-9.08-6.11a44.65,44.65,0,0,1-6.12.18Z" transform="translate(-30.2 -466.42)"/><path class="cls-4" d="M1348.86,870.26l-95.61.72c-1.81,0-3.62-.1-5.43-.16-7.33-12.67-5.4-25.73-1-38.53,5.67-16.32,16-30,26.14-43.75,6.89-9.35,15.15-17.69,20.57-28.1l55.28-.15Z" transform="translate(-30.2 -466.42)"/><path class="cls-4" d="M1348.8,933.64c-19.17,1-36.79-5.16-54.19-12-6.09-2.41-11.13-6.68-16-11-10.48-9.35-20.09-19.5-26.48-32.25.75-.06,1.5-.19,2.25-.19q47.2-.45,94.43-.87Z" transform="translate(-30.2 -466.42)"/><path class="cls-3" d="M794.79,722.61c-3.44-2.23-2.62-5.7-2.68-9-.08-4.5-2.9-8-7.48-9.73A10.49,10.49,0,0,0,773,706.22c-3.16,3-3.76,8.1-1.88,12.2A11.25,11.25,0,0,0,783,724.77c3.12-.59,4.82.33,6.08,2.92a15.38,15.38,0,0,1-18.53-.11,17.18,17.18,0,0,1-5.92-18.68,16.66,16.66,0,0,1,31.43,0C797.62,713.76,796.74,718.21,794.79,722.61Z" transform="translate(-30.2 -466.42)"/><path class="cls-4" d="M1113.49,804.37a58.44,58.44,0,0,1-15.27-5.84,45.66,45.66,0,0,0,6.19-.27C1109.51,797.32,1112.16,799.81,1113.49,804.37Z" transform="translate(-30.2 -466.42)"/></svg>