<svg class="icon-arctic-cat-logo" aria-hidden="true" xmlns="http://www.w3.org/2000/svg" width="360" height="141" viewBox="0 0 360 141">
  <g class="icon-arctic-cat-logo--text" fill="#66bc29">
    <g class="icon-arctic-cat-logo--arctic-text">
      <path class="icon-arctic-cat-logo--c-2-text" d="M142,133.3c-5.6-10.4-2.6-24.5,4.3-33.3c5.5-6.7,13.6-8,22.9-6.3l0.3,0.2l-1.6,11.4
        c-2.5-0.8-5.9-0.8-8.5,0.3c-5.7,4-6.6,11.4-6,17.9c0.3,2.1,1.6,4.1,3.6,5c2,0.7,5.2,0.7,7.3,0l-1.5,10.9
        C155.3,142.4,146.4,141.1,142,133.3"></path>
      <polygon class="icon-arctic-cat-logo--i-text" points="202.9,93.6 216.4,93.6 208.7,140.6 195.5,140.6"></polygon>
      <polygon class="icon-arctic-cat-logo--t-text" points="171.7,140.6 177.2,105 169.5,105 171,93.6 201.4,93.6 199.7,105 191.2,105 185,140.6"></polygon>
      <path class="icon-arctic-cat-logo--ar-text" d="M117.5,123.5l-2.7,17.1l-27.6,0l0-6.2l-8.1,0l-2.1,6.1l-13.6,0l18-47l16.1,0l3.4,45.4l7.4-45.4
        c10.2,0.9,24.8-3.7,30.1,7.2c2.3,5.6,0.4,12-2.7,16.7c-1.4,1.6-3.5,3.2-5.5,4.6l5.3,18.5l-13.9,0L117.5,123.5z M86.9,123.9v-14.7
        l-4.7,14.8L86.9,123.9z M125.3,107.5c0.1-1.8,0.4-3.8-1.4-4.7c-1.5-0.8-3.2-0.4-3.2-0.4l-1.5,10.4
        C122.6,113.6,124.8,110.1,125.3,107.5"></path>
      <path class="icon-arctic-cat-logo--c-text" d="M218.4,133.3c-5.6-10.4-2.6-24.5,4.3-33.3c5.5-6.7,13.6-8,22.9-6.3l0.3,0.2l-1.6,11.4
        c-2.5-0.8-5.9-0.8-8.5,0.3c-5.7,4-6.6,11.4-6,17.9c0.3,2.1,1.6,4.1,3.6,5c2,0.7,5.2,0.7,7.3,0l-1.5,10.9
        C231.7,142.4,222.8,141.1,218.4,133.3"></path>
    </g>
    <path class="icon-arctic-cat-logo--cat-text" d="M333.8,140.5l5.8-35.6l8.3,0.1l1.6-11.4h-29.9l-1.6,11.4l7.6-0.2l-5.4,35.7H333.8z M298,124
      l4.5-14.9V124H298z M278.9,139.6l0.1-1.1 M279.1,138.5l1.3-9.8c-2,0.7-5.3,0.7-7.3,0c-1.9-0.9-3.3-2.9-3.6-5
      c-0.6-6.5,0.3-13.9,6-17.9c2.6-1.2,6.1-1.1,8.5-0.3l1.6-11.4l-0.3-0.2c-9.3-1.6-17.4-0.4-22.9,6.3c-6.9,8.8-9.9,22.9-4.3,33.3
      c3.9,6.8,11.9,8.4,18.7,7l0.8,0c4.6,0,15,0,15,0l2-6.1l7.9,0l0.3,6.1l13.5,0l-3.8-47.1l-16.2,0.1l-17.3,44.6L279.1,138.5z"></path>
    <path class="icon-arctic-cat-logo--registration" d="M350.9,98c0-2.6,2.1-4.5,4.6-4.5c2.4,0,4.5,1.9,4.5,4.5c0,2.6-2.1,4.5-4.5,4.5
      C353,102.5,350.9,100.6,350.9,98 M355.5,101.8c2,0,3.6-1.6,3.6-3.8c0-2.1-1.6-3.7-3.6-3.7c-2.1,0-3.7,1.6-3.7,3.7
      C351.8,100.2,353.4,101.8,355.5,101.8 M354.5,100.6h-0.8v-5.2h2c1.2,0,1.8,0.4,1.8,1.5c0,0.9-0.6,1.3-1.3,1.4l1.5,2.3h-0.9
      l-1.4-2.2h-0.9V100.6z M355.5,97.7c0.7,0,1.3,0,1.3-0.8c0-0.6-0.6-0.8-1.1-0.8h-1.1v1.6H355.5z"></path>
  </g>
  <g class="icon-arctic-cat-logo--cat-silhouette" fill="#231F20">
    <path class="icon-arctic-cat-logo--cat" d="M254.6,57.8c2.2-8.4,11.7-20.4,12-20.3c9.2,3.8,23.7,8.5,24.7,8.3c1.4-0.3,1-2.6,1-2.6s1-0.3,2.9-1.4
      c1.8-1.1,0.7-3.6,0.7-3.6c-2.1,1.8-5.7,0.9-5.7,0.9c0.3-0.8-9.7-7.5-9.4-7.3c0.2,0.1,12.8-3,12.8-3c3.8,1.8,2.4,6.8,0.3,8.4
      c2.2,0.3,7.2-3.6,8.1-6c7.1-0.8,6.9-7.8,6.9-7.8s0.7,1.2,1.4-1.2c0.6-2.2-9.2-5.7-11-6.3c0.1-0.1,0.2-0.7,0-2.6
      c-0.3-2.5-15.9-9.9-19.8-7.7C270.9,5.6,254.4,0,254.4,0l1.3,8c-10.2,2.7-43.9,8.2-84,25.3c-42.3,7-55.1,7-132-1.9
      c45.8,14.6,92.9,18.4,92.9,18.4C49.8,84.6,0,127.1,0,127.1c55.4-29.1,158.7-73.8,222.7-67c0,0-7.7,21.8-7.4,21.7
      c34.4-14.9,134-12.8,134-12.8S295.8,54.6,254.6,57.8"></path>
    <path class="icon-arctic-cat-logo--cat-eye" d="M293.9,13.7c0,0,4,3.6,3.3,3.7c-0.6,0.1-5.8-0.5-6-0.4c0,0,0,0,0,0c0,0,0,0,0,0
      c0.2-2.3-6.2-4.9-6.2-4.9L293.9,13.7z" fill="#66bc29"></path>
  </g>
</svg>
