<svg class="cushman-logo" aria-hidden="true" role="presentation" xmlns="http://www.w3.org/2000/svg" viewBox="0 0 195 34" style="enable-background:new 0 0 195 34" xml:space="preserve">
  <title>Cushman Vehicles</title>
  <g class="cushman-logo__icon">
    <path d="m3.52 28.56 16.71 3.59a1.19 1.19 0 0 0 .53 0l16.73-3.59c.3-.08.31-.19.36-.36a51.19 51.19 0 0 0 1.23-11.14A51.35 51.35 0 0 0 37.85 5.9c-.06-.25-.09-.34-.42-.41L20.8 1.91a1.05 1.05 0 0 0-.61 0C20 1.94 5.68 5 3.49 5.51c-.29.06-.32.17-.34.25A51.46 51.46 0 0 0 1.88 17a52 52 0 0 0 1.26 11.2.42.42 0 0 0 .38.36Z" fill="#f2cd00"></path>
    <path d="M20.58 32.17h.25c2.15-.46 16.4-3.51 16.72-3.59s.33-.2.38-.36a51.64 51.64 0 0 0 1.22-11.14A52.26 52.26 0 0 0 37.93 5.9c-.07-.25-.09-.34-.43-.41S23.17 2.4 20.88 1.9a1.37 1.37 0 0 0-.3 0c-.01 2.47 0 28.79 0 30.27Z" fill="#fff"></path>
    <path d="M33.25 14.51V9a.45.45 0 0 0-.33-.4 41.9 41.9 0 0 0-12.35-1.76A42.12 42.12 0 0 0 8.13 8.58a.4.4 0 0 0-.26.34v16.13a.31.31 0 0 0 .2.33 40.61 40.61 0 0 0 12.5 1.82A40.86 40.86 0 0 0 33 25.4a.36.36 0 0 0 .24-.34v-5.54h-6.3v2.39H14.13v-9.78h12.8v2.38Z" fill="#231f20"></path>
    <path d="M39.94 5.79v-.2A2.36 2.36 0 0 0 38 3.67L21.52.12a3.81 3.81 0 0 0-1.84 0l-10 2.16-6.54 1.39a2.21 2.21 0 0 0-1.87 2A48.33 48.33 0 0 0 0 17a48.86 48.86 0 0 0 1.3 11.54A2.13 2.13 0 0 0 3 30.33l16.7 3.57a4.92 4.92 0 0 0 .84.1 5 5 0 0 0 .9-.11l16.42-3.51c1.29-.31 1.68-.68 2-1.88A50.45 50.45 0 0 0 41.13 17a51.48 51.48 0 0 0-1.19-11.21ZM39 17a49.51 49.51 0 0 1-1.23 11 .41.41 0 0 1-.36.35c-.31.08-14.39 3.09-16.59 3.55a1.27 1.27 0 0 1-.58 0l-3.49-.75-13-2.77c-.3-.07-.41-.14-.49-.45A47.89 47.89 0 0 1 2.08 17 48.76 48.76 0 0 1 3.32 6a.44.44 0 0 1 .37-.35c2.66-.57 16.41-3.52 16.6-3.55H20.86l16.51 3.53a.52.52 0 0 1 .45.4A49.3 49.3 0 0 1 39 17Z" fill="#231f20"></path>
  </g>
  <g class="cushman-logo__text">
    <path d="M83.81 9.5h4v13.91l-.11.05a25.26 25.26 0 0 1-16.34 0l-.11-.05V9.5h4v11.43h8.48V9.5Zm-19 9.61v1.82h-9v-8.1h9v1.82h4v-4.31l-.11-.05a27 27 0 0 0-16.86 0l-.11.05v13.07l.11.05a26.85 26.85 0 0 0 16.86 0l.11-.05v-4.3Zm44.6-9.61v14.81h4V18.7h8.49v5.61h4V9.5h-4v5.28h-8.5V9.5Zm19.25 0v14.81h3.92V13.67l5.28 10.64h3l5.28-10.64v10.64h3.92V9.5h-6.18l-4.52 9.5-4.55-9.5Zm42.44 14.81L163.88 9.5h-5.24l-7.11 14.81H156l5.22-11.37 1.95 4.13-2 4.15h3.95l1.46 3.09Zm-64.27-7.59a24.89 24.89 0 0 0-4.5-1.15c-2.62-.43-8-.72-8-.72v-2.07h8.49v1.33h4v-3.77l-.11-.05a25.37 25.37 0 0 0-16.33 0l-.11.05V17a24.34 24.34 0 0 0 4.5 1.16c2.62.43 8 .72 8 .72V21h-8.46v-1.35h-4v3.76l.11.05a25.23 25.23 0 0 0 16.33 0l.11-.05v-6.69Zm65.7-7.12v14.71h4V13.62l7.51 10.69h6.2V9.6h-4v10.68L178.72 9.6ZM195 10.53a1.66 1.66 0 0 1-1.69 1.67 1.66 1.66 0 1 1 0-3.32 1.65 1.65 0 0 1 1.69 1.65Zm-3 0a1.28 1.28 0 0 0 1.28 1.32 1.27 1.27 0 0 0 1.26-1.31 1.27 1.27 0 1 0-2.54 0Zm1 .86h-.38V9.75a3.32 3.32 0 0 1 .63-.05 1 1 0 0 1 .57.12.41.41 0 0 1-.18.74.47.47 0 0 1 .3.4 1.45 1.45 0 0 0 .13.41h-.42a1.4 1.4 0 0 1-.13-.4c0-.18-.13-.26-.34-.26H193Zm0-.93h.18c.21 0 .38-.07.38-.24s-.11-.25-.35-.25H193Z" fill="black"></path>
  </g>
</svg>