<?xml version="1.0" encoding="UTF-8" standalone="no"?>
<!-- Created with Inkscape (http://www.inkscape.org/) -->

<svg
   width="39.2019mm"
   height="8.6828842mm"
   viewBox="0 0 39.2019 8.6828842"
   version="1.1"
   id="svg1"
   xml:space="preserve"
   xmlns="http://www.w3.org/2000/svg"
   xmlns:svg="http://www.w3.org/2000/svg"><defs
     id="defs1" /><g
     id="layer1"
     transform="translate(-103.56923,-137.80598)"><g
       id="g10"
       transform="matrix(0.03527778,0,0,-0.03527778,90.37341,178.41388)"><path
         d="M 1485.29,904.961 V 1151.09 H 374.055 V 904.961 H 1485.29"
         style="fill:#231f20;fill-opacity:1;fill-rule:evenodd;stroke:none"
         id="path18" /><path
         d="m 623.906,1003.28 v 44.45 H 491.605 v 20.56 h 148.891 v 52.54 H 464.055 c -18.258,0 -33.063,-14.8 -33.063,-33.06 V 962.871 c 0,-18.258 14.805,-33.058 33.063,-33.058 h 176.441 v 52.292 H 491.605 v 21.175 h 132.301"
         style="fill:#ffffff;fill-opacity:1;fill-rule:evenodd;stroke:none"
         id="path20" /><path
         d="m 674.59,1120.83 h 202.73 c 0,0 34.414,3.49 36.739,-20.2 1.722,-17.56 -11.02,-23.88 -11.02,-23.88 L 761.605,982.105 H 903.039 V 929.813 H 695.484 c 0,0 -34.898,-1.379 -34.898,29.386 0,0 -4.594,10.102 27.094,31.223 31.683,21.128 122.601,77.868 122.601,77.868 H 674.59 v 52.54"
         style="fill:#ffffff;fill-opacity:1;fill-rule:evenodd;stroke:none"
         id="path22" /><path
         d="m 743.031,1048.59 h -92.605 v -44.45 h 22.519 c 20.93,13.49 48.664,30.99 70.086,44.45"
         style="fill:#ffffff;fill-opacity:1;fill-rule:evenodd;stroke:none"
         id="path24" /><path
         d="m 834.117,1004.14 h 93.199 v 44.45 h -23.109 c -21.422,-13.46 -49.156,-30.96 -70.09,-44.45"
         style="fill:#ffffff;fill-opacity:1;fill-rule:evenodd;stroke:none"
         id="path26" /><path
         d="m 1397.24,1120.83 h -157.96 c -18.26,0 -33.07,-14.8 -33.07,-33.06 V 962.871 c 0,-18.258 14.81,-33.058 33.07,-33.058 h 20.09 123.06 14.81 c 18.26,0 33.06,14.8 33.06,33.058 v 124.899 c 0,18.26 -14.8,33.06 -33.06,33.06"
         style="fill:#ffffff;fill-opacity:1;fill-rule:evenodd;stroke:none"
         id="path28" /><path
         d="m 1369.69,1069.15 v -86.181 h -102.86 v 86.181 h 102.86"
         style="fill:#231f20;fill-opacity:1;fill-rule:evenodd;stroke:none"
         id="path30" /><path
         d="M 1138.14,929.813 H 980.293 c -18.254,0 -33.059,14.8 -33.059,33.058 v 124.899 c 0,18.26 14.805,33.06 33.059,33.06 h 193.747 v -52.54 h -162.06 v -86.185 h 100.45 v 21.175 h -56.94 v 42.24 h 118.55 v -84.485 c 0,0 2.67,-31.222 -35.9,-31.222"
         style="fill:#ffffff;fill-opacity:1;fill-rule:evenodd;stroke:none"
         id="path32" /></g></g></svg>
