<svg class="jacobsen-logo" xmlns="http://www.w3.org/2000/svg" aria-hidden="true" viewBox="0 0 356.41 128.71" style="enable-background:new 0 0 356.41 128.71" xml:space="preserve">

<!-- <path d="M25.69,97.25a.18.18,0,0,0-.07,0l.13-.08-.06,0" style="fill:#fff"/>
<path d="M92.64,97.1l0,0L92.52,97l.12.13" style="fill:#fff"/> -->
<path d="M204.65,69.68c7.28,0,7.28,0,8.72.14,2.1.17,5.06.66,6.55,3.13a5.58,5.58,0,0,1,.77,2.47l1.14-.55a14,14,0,0,1,8.61-5.05c.63-.11,1.44-.21,2.44-.29C275.31,48.75,317.63,25.38,356.41,0,326,17.31,275.31,41.32,194.73,69.5c-.18,0-.35.12-.52.18h10.44" style="fill:#008752"></path>
<path d="M144.13,106.67c-13.4,0-16.79-.29-19.27-3.14a5.89,5.89,0,0,1-1.44-3.09,13.72,13.72,0,0,1-7.49,5.08c-3,.82-6.92,1.15-13.44,1.15-10.63,0-15.07-.27-17.73-1.33l-1.11.34-1.19.35C52.75,115,24.67,122.71,0,128.71H94.79c18-6.66,36.81-14.05,56.09-22.09-1.93,0-4.15,0-6.75,0" style="fill:#008752"></path>
<path d="M156.77,92c.52-.29,1.1-.85,2.64-4.37.93-2.16,1.43-3.47,1.69-4.28-1.63-.11-4.43-.12-6.62-.12q-5.67,1.89-11.33,3.74c-.39.8-.83,1.77-1.35,3s-.87,2-1.07,2.61c1.67.15,4.78.15,6.84.15,7,0,8.28-.15,9.2-.69" style="fill:#008752"></path>
<path d="M43.75,72.72,35.82,90.93c-2.51,5.75-3.92,7.94-6.2,9.72-3,2.28-6.45,3-14.89,3-9,0-12.19-.6-13.37-2.6C.51,99.51.83,97.5,2.67,93.31c.37-.87.71-1.65,1.52-3.29h9.26c-1.46,3.33-1.63,4.06-1.27,4.7s1.88,1,5.31,1,5.41-.28,6.56-1.06c1-.59,1.43-1.27,2.58-3.92l7.86-18h9.26" style="fill:#F36F21"></path>
<path d="M124.55,91.43c-.71,1.83-1,2.47-1.27,3.11-2,4.66-4.34,6.93-8.15,8-2.69.73-6.3,1.05-12.64,1.05-12.36,0-15.94-.37-17.79-1.78C83.19,100.7,83,99,84,95.91c.46-1.37,1.47-3.88,3.15-7.76,3-6.8,4.24-9.3,5.66-11,3.44-4.1,7.1-4.88,22.94-4.88,8.21,0,10.9.33,12.52,1.42,2,1.32,2,3.56-.13,8.35l-.7,1.59h-9.26c.79-2,.87-2.41.53-2.87s-3-.86-8.89-.86-7.51.18-8.74.9c-1.5.92-2.64,2.7-4.64,7.31s-2.38,6.07-1.6,6.88,2.17,1,8.42,1c9.76,0,10-.09,12-4.57h9.31" style="fill:#F36F21"></path>
<path d="M154,80.17c8.9,0,9.8.13,10.31,1.36.38,1-.1,2.74-2.09,7.31-1.59,3.64-2.48,5-3.89,5.79-1.65,1-3.17,1.09-10.74,1.09s-9-.13-9.79-1.09-.46-2.1,1.21-5.93,2.61-5.57,3.61-6.62c1.68-1.73,2.67-1.91,11.38-1.91m4.08-7.9c-13.05,0-16,.32-19.07,2.1s-5.12,4.84-8.94,13.6-4.44,11.77-2.89,13.55,4.24,2.1,17,2.1,15.69-.32,18.79-2.1S168,96.68,171.84,88s4.47-11.82,2.92-13.6S170.47,72.27,158.06,72.27Z" style="fill:#F36F21"></path>
<path d="M186.35,84.73l2.11-4.84h13a34,34,0,0,1,4.78.14c.86.23,1,.91.42,2.19a3.68,3.68,0,0,1-1.95,2.15c-.71.27-2.07.36-5.36.36h-13m-16.84,18.43h21.9c10.24,0,10.76-.09,12.75-.68,3.09-.91,5.21-3.15,7.1-7.49,2.12-4.88,1.67-6.66-2-7.34,3.48-.87,5.26-2.65,7.17-7,2.38-5.49,1.58-7.4-3.24-7.76-1.33-.09-1.33-.09-8.51-.14H182.77Zm12-7.3,2.2-5.07h13.09c5.36,0,5.36,0,5.79.15.94.22,1.08.86.47,2.27a3.58,3.58,0,0,1-2.1,2.28c-.82.33-.82.33-6.36.37Z" style="fill:#F36F21"></path>
<path d="M225,93.08c-.8,1.83-.87,2.41-.34,2.87s1.59.64,8.11.64c9.95,0,9.95,0,11.14-2.74.77-1.78.3-2.23-2.65-2.28l-4.81-.18-2.37-.09c-2.15-.09-4.54-.18-7.25-.32-7.43-.23-8.69-2.14-5.77-8.85,2.53-5.79,5.3-8.39,9.89-9.31,2-.36,6.17-.55,13.65-.55,8.67,0,11.73.42,13.24,1.88,1.27,1.18,1.18,3.15-.32,6.61-.13.27-.4.91-.73,1.55h-8.94c.65-1.68.68-2.09.18-2.51s-1.68-.55-8.52-.55c-7.53,0-8.3.19-9.27,2.42-.49,1.15-.34,1.74.52,2s3.17.36,9.53.55c9.89.32,11.75.54,13.18,1.77s1.38,3.42-.39,7.48c-2.41,5.52-4.75,8.08-8.46,9.27-2.12.68-6.06.91-15.14.91-9.44,0-12.94-.46-14.51-1.78s-1.42-3.11.34-7.16l.7-1.6h9" style="fill:#F36F21"></path><polyline points="321.76 72.72 327.8 95.4 328.76 95.4 338.41 72.72 347.86 72.72 334.59 103.16 318.49 103.16 312.36 80.49 311.35 80.49 301.69 103.16 292.25 103.16 305.51 72.72 321.76 72.72" style="fill:#F36F21"></polyline><polyline points="255.88 95.9 252.74 103.17 288.4 103.16 291.54 95.89 255.88 95.9" style="fill:#F36F21"></polyline><polyline points="265.93 72.72 262.84 79.75 298.64 79.75 301.68 72.72 265.93 72.72" style="fill:#F36F21"></polyline><polyline points="260.65 84.85 257.94 91.14 291.69 91.13 294.4 84.85 260.65 84.85" style="fill:#F36F21"></polyline>
<path d="M75.09,72.78l-12.81,0-30,30.28,11,0,5.12-5.36,6.4-6.52L65.74,79.82l1.52,9.74S60,97.39,60.11,97.69l8.23,0,.83,5.34,10.94,0-5-30.21" style="fill:#F36F21;fill-rule:evenodd"></path>
<path d="M351.88,75.63v-.81h.5c.26,0,.63,0,.63.37s-.18.44-.51.44h-.62m0,.56h.33L353,77.6h.84L353,76.14a.8.8,0,0,0,.81-.88c0-.76-.51-1-1.37-1h-1.24V77.6h.71Zm3.62-.26a3.11,3.11,0,1,0-3.1,3.1A3,3,0,0,0,355.5,75.93Zm-.89,0a2.26,2.26,0,0,1-2.21,2.39v0a2.38,2.38,0,0,1,0-4.75A2.25,2.25,0,0,1,354.61,75.93Z" style="fill:#F36F21"></path>
<path d="M43.75,72.72,35.82,90.93c-2.51,5.75-3.92,7.94-6.2,9.72-3,2.28-6.45,3-14.89,3-9,0-12.19-.6-13.37-2.6C.51,99.51.83,97.5,2.67,93.31c.37-.87.71-1.65,1.52-3.29h9.26c-1.46,3.33-1.63,4.06-1.27,4.7s1.88,1,5.31,1,5.41-.28,6.56-1.06c1-.59,1.43-1.27,2.58-3.92l7.86-18h9.26" style="fill:#F36F21"></path>
<path d="M124.55,91.43c-.71,1.83-1,2.47-1.27,3.11-2,4.66-4.34,6.93-8.15,8-2.69.73-6.3,1.05-12.64,1.05-12.36,0-15.94-.37-17.79-1.78C83.19,100.7,83,99,84,95.91c.46-1.37,1.47-3.88,3.15-7.76,3-6.8,4.24-9.3,5.66-11,3.44-4.1,7.1-4.88,22.94-4.88,8.21,0,10.9.33,12.52,1.42,2,1.32,2,3.56-.13,8.35l-.7,1.59h-9.26c.79-2,.87-2.41.53-2.87s-3-.86-8.89-.86-7.51.18-8.74.9c-1.5.92-2.64,2.7-4.64,7.31s-2.38,6.07-1.6,6.88,2.17,1,8.42,1c9.76,0,10-.09,12-4.57h9.31" style="fill:#F36F21"></path>
<path d="M154,80.17c8.9,0,9.8.13,10.31,1.36.38,1-.1,2.74-2.09,7.31-1.59,3.64-2.48,5-3.89,5.79-1.65,1-3.17,1.09-10.74,1.09s-9-.13-9.79-1.09-.46-2.1,1.21-5.93,2.61-5.57,3.61-6.62c1.68-1.73,2.67-1.91,11.38-1.91m4.08-7.9c-13.05,0-16,.32-19.07,2.1s-5.12,4.84-8.94,13.6-4.44,11.77-2.89,13.55,4.24,2.1,17,2.1,15.69-.32,18.79-2.1S168,96.68,171.84,88s4.47-11.82,2.92-13.6S170.47,72.27,158.06,72.27Z" style="fill:#F36F21"></path>
<path d="M186.35,84.73l2.11-4.84h13a34,34,0,0,1,4.78.14c.86.23,1,.91.42,2.19a3.68,3.68,0,0,1-1.95,2.15c-.71.27-2.07.36-5.36.36h-13m-16.84,18.43h21.9c10.24,0,10.76-.09,12.75-.68,3.09-.91,5.21-3.15,7.1-7.49,2.12-4.88,1.67-6.66-2-7.34,3.48-.87,5.26-2.65,7.17-7,2.38-5.49,1.58-7.4-3.24-7.76-1.33-.09-1.33-.09-8.51-.14H182.77Zm12-7.3,2.2-5.07h13.09c5.36,0,5.36,0,5.79.15.94.22,1.08.86.47,2.27a3.58,3.58,0,0,1-2.1,2.28c-.82.33-.82.33-6.36.37Z" style="fill:#F36F21"></path>
<path d="M225,93.08c-.8,1.83-.87,2.41-.34,2.87s1.59.64,8.11.64c9.95,0,9.95,0,11.14-2.74.77-1.78.3-2.23-2.65-2.28l-4.81-.18-2.37-.09c-2.15-.09-4.54-.18-7.25-.32-7.43-.23-8.69-2.14-5.77-8.85,2.53-5.79,5.3-8.39,9.89-9.31,2-.36,6.17-.55,13.65-.55,8.67,0,11.73.42,13.24,1.88,1.27,1.18,1.18,3.15-.32,6.61-.13.27-.4.91-.73,1.55h-8.94c.65-1.68.68-2.09.18-2.51s-1.68-.55-8.52-.55c-7.53,0-8.3.19-9.27,2.42-.49,1.15-.34,1.74.52,2s3.17.36,9.53.55c9.89.32,11.75.54,13.18,1.77s1.38,3.42-.39,7.48c-2.41,5.52-4.75,8.08-8.46,9.27-2.12.68-6.06.91-15.14.91-9.44,0-12.94-.46-14.51-1.78s-1.42-3.11.34-7.16l.7-1.6h9" style="fill:#F36F21"></path><polyline points="321.76 72.72 327.8 95.4 328.76 95.4 338.41 72.72 347.86 72.72 334.59 103.16 318.49 103.16 312.36 80.49 311.35 80.49 301.69 103.16 292.25 103.16 305.51 72.72 321.76 72.72" style="fill:#F36F21"></polyline><polyline points="255.88 95.9 252.74 103.17 288.4 103.16 291.54 95.89 255.88 95.9" style="fill:#F36F21"></polyline><polyline points="265.93 72.72 262.84 79.75 298.64 79.75 301.68 72.72 265.93 72.72" style="fill:#F36F21"></polyline><polyline points="260.65 84.85 257.94 91.14 291.69 91.13 294.4 84.85 260.65 84.85" style="fill:#F36F21"></polyline>
<path d="M75.09,72.78l-12.81,0-30,30.28,11,0,5.12-5.36,6.4-6.52L65.74,79.82l1.52,9.74S60,97.39,60.11,97.69l8.23,0,.83,5.34,10.94,0-5-30.21" style="fill:#F36F21"></path>
<path d="M351.88,75.63v-.81h.5c.26,0,.63,0,.63.37s-.18.44-.51.44h-.62m0,.56h.33L353,77.6h.84L353,76.14a.8.8,0,0,0,.81-.88c0-.76-.51-1-1.37-1h-1.24V77.6h.71Zm3.62-.26a3.11,3.11,0,1,0-3.1,3.1A3,3,0,0,0,355.5,75.93Zm-.89,0a2.26,2.26,0,0,1-2.21,2.39v0a2.38,2.38,0,0,1,0-4.75A2.25,2.25,0,0,1,354.61,75.93Z" style="fill:#F36F21"></path>
</svg>