<?xml version="1.0" encoding="UTF-8" standalone="no"?>
<!-- Created with Inkscape (http://www.inkscape.org/) -->

<svg
   width="2405.4614mm"
   height="476.9436mm"
   viewBox="0 0 2405.4614 476.9436"
   version="1.1"
   id="svg1"
   xml:space="preserve"
   xmlns="http://www.w3.org/2000/svg"
   xmlns:svg="http://www.w3.org/2000/svg"><defs
     id="defs1" /><g
     id="layer1"
     style="display:inline"
     transform="translate(2504.8077,831.05626)">
 
 


 
<g
   id="g72"
   style="display:inline;fill:#0099cb;fill-opacity:1"><path
     style="opacity:1;fill:#0099cb;fill-opacity:1;stroke:none;stroke-width:0.1"
     d="m -2504.8075,-831.01114 v 96.23976 h 133.9628 v 241.61541 h 138.2802 l 0.01,-241.87991 h 134.2043 v -95.98676 z"
     id="path42" /><path
     style="opacity:1;fill:#0099cb;fill-opacity:1;stroke:none;stroke-width:0.1"
     d="m -2030.6771,-763.98437 c 89.1966,-0.0806 252.4722,0.19276 270.4534,0 13.769,0.38107 28.4813,14.05522 28.3439,29.00654 0.3955,23.70766 0,67.10336 0,67.10336 h -202.8527 v 18.91067 h 202.8362 v 54.24662 h -202.8578 v 20.37837 h 202.8743 v 81.21986 c 0,0 -231.6694,0.0856 -299.5289,0 -15.598,-0.056 -26.433,-6.57739 -26.286,-19.504 -0.023,-61.34262 -0.1906,-160.53358 0,-231.14804 0.03,-11.24733 16.3453,-20.36712 27.0176,-20.21338 z"
     id="path43" /><path
     style="opacity:1;fill:#0099cb;fill-opacity:1;stroke:none;stroke-width:0.1"
     d="m -1709.1422,-764.05051 v 270.90026 h 122.7336 v -35.18813 l 37.483,-37.48302 179.1716,179.13544 h 148.6653 l -253.4857,-253.44959 190.8889,-190.88891 h -149.9758 l -152.7562,152.75618 v -85.80184 z"
     id="path46" /></g><g
   id="g70"
   style="display:inline;fill:#000000"
   transform="translate(0.46175766,-0.18267061)"><path
     style="opacity:1;fill:#000000;stroke:none;stroke-width:0.1"
     d="m -889.72759,-466.19583 h 38.69531 v 79.50729 h -38.72839 z"
     id="path66" /><path
     style="opacity:1;fill:#000000;stroke:none;stroke-width:0.1"
     d="m -839.39061,-460.57343 c 0,9.86797 0,73.88489 0,73.88489 h 33.75091 v -37.25664 l 37.26492,37.26492 c 0,0 17.76906,0 25.30536,0 5.03299,0 8.76241,-4.05752 8.76241,-8.76241 0,-20.99744 0,-70.75316 0,-70.75316 h -34.53907 v 34.51212 l -34.53863,-34.53866 c 0,0 -19.9358,0 -28.31796,0 -3.81677,0 -7.68794,2.4138 -7.68794,5.64894 z"
     id="path67" /><path
     style="opacity:1;fill:#000000;stroke:none;stroke-width:0.1"
     d="m -335.22707,-460.57306 c 0,9.86797 0,73.88489 0,73.88489 h 33.75091 v -37.25664 l 37.26492,37.26492 c 0,0 17.76906,0 25.30536,0 5.03299,0 8.76241,-4.05752 8.76241,-8.76241 0,-20.99744 0,-70.75316 0,-70.75316 h -34.53907 v 34.51212 l -34.53863,-34.53866 c 0,0 -19.9358,0 -28.31796,0 -3.81677,0 -7.68794,2.4138 -7.68794,5.64894 z"
     id="path67-3" /><path
     style="opacity:1;fill:#000000;stroke:none;stroke-width:0.1"
     d="m -1116.7325,-460.59484 c 0,9.86797 0,73.88489 0,73.88489 h 33.7509 v -37.25664 l 37.2649,37.26492 c 0,0 17.769,0 25.3053,0 5.033,0 8.7625,-4.05752 8.7625,-8.76241 0,-20.99744 0,-70.75316 0,-70.75316 h -34.5391 v 34.51212 l -34.5386,-34.53866 c 0,0 -19.9358,0 -28.318,0 -3.8168,0 -7.6879,2.4138 -7.6879,5.64894 z"
     id="path67-9" /><path
     id="path70"
     style="display:inline;opacity:1;fill:#0099cd;fill-opacity:1;stroke:none;stroke-width:0.1"
     d="m -492.47227,-466.21237 c -2.90495,0 -5.37434,2.53218 -5.37434,5.37435 v 74.18255 l 38.13307,-0.01 v -20.38583 h 15.60008 l 53.12131,53.1213 h 47.24879 l -53.60655,-53.60654 c 2.26845,0 3.98994,-1.94522 3.98994,-3.98994 v -47.95728 c 0,-3.98361 -2.83981,-6.72879 -6.7293,-6.72879 z m 32.84193,27.39574 h 27.75954 v 9.49503 h -27.75954 z" /><path
     style="opacity:1;fill:#000000;stroke:none;stroke-width:0.0292855"
     d="m -1219.1988,-466.00424 c 26.1217,-0.0236 73.9378,0.0564 79.2037,0 4.0323,0.11159 8.3409,4.11614 8.3006,8.49471 0.1158,6.94291 0,19.65157 0,19.65157 h -59.4065 v 5.53809 h 59.4017 v 15.8864 h -59.408 v 5.96792 h 59.4128 v 23.78566 c 0,0 -67.8456,0.0251 -87.7186,0 -4.5679,-0.0164 -7.741,-1.92623 -7.698,-5.71185 -0.01,-17.96451 -0.056,-47.0131 0,-67.69291 0.01,-3.29384 4.7868,-5.96462 7.9123,-5.91959 z"
     id="path43-7" /><path
     style="display:inline;opacity:1;fill:#000000;stroke:none;stroke-width:0.1"
     d="m -383.34816,-466.19629 h 38.69531 v 79.50729 h -38.72839 z"
     id="path66-0" /><path
     style="opacity:1;fill:#000000;stroke:none;stroke-width:0.0292855"
     d="m -714.37287,-466.00426 c 26.1217,-0.0236 73.9378,0.0564 79.2037,0 4.0323,0.11159 8.3409,4.11614 8.3006,8.49471 0.1158,6.94291 0,19.65157 0,19.65157 h -59.4065 v 5.53809 h 59.4017 v 15.8864 h -59.408 v 5.96792 h 59.4128 v 23.78566 c 0,0 -67.8456,0.0251 -87.7186,0 -4.5679,-0.0164 -7.741,-1.92623 -7.698,-5.71185 -0.01,-17.96451 -0.056,-47.0131 0,-67.69291 0.01,-3.29384 4.7868,-5.96462 7.9123,-5.91959 z"
     id="path43-7-0" /><path
     style="opacity:1;fill:#000000;stroke:none;stroke-width:0.0292855"
     d="m -599.57946,-466.11936 c 26.1217,-0.0236 73.9378,0.0564 79.2037,0 4.0323,0.11159 8.3409,4.11614 8.3006,8.49471 0.1158,6.94291 0,19.65157 0,19.65157 h -59.4065 v 5.53809 h 59.4017 v 15.8864 h -59.408 v 5.96792 h 59.4128 v 23.78566 c 0,0 -67.8456,0.0251 -87.7186,0 -4.5679,-0.0164 -7.741,-1.92623 -7.698,-5.71185 -0.01,-17.96451 -0.056,-47.0131 0,-67.69291 0.01,-3.29384 4.7868,-5.96462 7.9123,-5.91959 z"
     id="path43-7-0-6" /><path
     style="opacity:1;fill:#000000;stroke:none;stroke-width:0.0235333"
     d="m -996.65338,-461.85053 c -0.0111,19.96304 0,52.96583 0,70.88896 0,2.19774 3.55231,4.29029 7.43102,4.29029 18.17678,-4.8e-4 86.93188,0 86.93188,0 v -47.84481 h -44.08374 v 19.23995 h 12.57757 v 9.58885 h -31.69298 v -37.98179 h 63.22633 v -18.04717 c 0,-2.64941 -1.96492,-4.46336 -4.46335,-4.46336 -10.08783,0 -60.54032,-0.0162 -83.3266,0 -3.33551,0.002 -6.59867,2.05024 -6.60013,4.32908 z"
     id="path47-0" /><path
     style="opacity:1;fill:#000000;stroke:none;stroke-width:0.0235333"
     d="m -215.3659,-461.85072 c -0.011,19.96304 0,52.96583 0,70.88896 0,2.19774 3.5523,4.29029 7.431,4.29029 18.17681,-4.8e-4 86.93191,0 86.93191,0 v -47.84481 h -44.08374 v 19.23995 h 12.57757 v 9.58885 h -31.69298 v -37.98179 h 63.22633 v -18.04717 c 0,-2.64941 -1.96492,-4.46336 -4.46335,-4.46336 -10.08783,0 -60.54032,-0.0162 -83.32664,0 -3.3355,0.002 -6.5986,2.05024 -6.6001,4.32908 z"
     id="path47-0-4" /></g><g
   id="g71"
   style="display:inline;fill:#000000"><path
     style="opacity:1;fill:#000000;stroke:none;stroke-width:0.1"
     d="m -1359.0323,-812.53541 c -0.047,84.82883 0,225.06742 0,301.22812 0,9.33889 15.0948,18.23072 31.5766,18.23072 77.2385,-0.002 369.39946,0 369.39946,0 v -203.30675 h -187.32496 v 81.75624 h 53.4458 v 40.74584 h -134.6729 v -161.39583 h 268.66755 v -76.68774 c 0,-11.25812 -8.34952,-18.96612 -18.9661,-18.96612 -42.86615,0 -257.25395,-0.0689 -354.07955,0 -14.1736,0.008 -28.0397,8.71205 -28.0459,18.39552 z"
     id="path47" /><path
     id="path49"
     style="opacity:1;fill:#000000;stroke:none;stroke-width:0.1"
     d="m -904.94115,-831.05625 c -12.70503,0 -24.14116,8.77481 -24.14116,20.40082 v 317.48967 h 133.30091 v -81.17851 h 236.05536 c 17.51742,0 32.8843,-11.25481 32.8843,-24.71374 v -214.00657 c 0,-9.44502 -11.14679,-17.99167 -22.69784,-17.99167 z m 109.06622,95.98484 h 135.07754 v 67.16489 h -135.07754 z" /><path
     style="opacity:1;fill:#000000;stroke:none;stroke-width:0.1"
     d="m -500.59166,-809.88957 c 0,57.8735 0,122.3411 0,174.4927 0,12.35738 8.63148,20.6375 20.6375,20.6375 45.05069,0 247.65,0 247.65,0 v 40.34896 h -268.43866 c 0,0 0,48.8689 0,60.94555 0,11.65697 8.27745,20.29913 20.29913,20.29913 35.8749,0 314.43704,0 353.2234,0 17.00309,0 27.874168,-7.17917 27.874168,-16.09315 0,-34.55781 0,-127.89762 0,-169.13278 0,-10.52986 -7.928558,-17.79569 -17.795688,-17.79569 -36.78687,0 -250.2068,0 -250.2068,0 v -38.79048 h 267.910985 c 0,0 0,-51.6318 0,-77.68987 0,-10.57149 -8.201555,-18.34525 -18.345255,-18.34525 -40.83727,0 -241.41748,0 -359.29322,0 -10.83198,0 -23.51556,8.97251 -23.51556,21.12338 z"
     id="path50" /></g></g></svg>
