<svg width="374" height="62" viewBox="0 0 374 62" fill="#0153a8" xmlns="http://www.w3.org/2000/svg">
  <g clip-path="url(#clip0_6_35)">
    <path d="M89.03 59.21V45.12H70.09V37.33H89.03V23.25H70.59V15.46H89.03V1.38H51.71V59.21H89.03Z" fill="var(--primary-logo-path)"/>
    <path d="M109.59 30.41L89.03 59.21H108.46L119.18 44.12L130.02 59.21H149.96L129.39 29.67L149.21 1.38H130.14L119.68 16.2L109.21 1.38H89.03L109.59 30.41Z" fill="var(--primary-logo-path)"/>
    <path d="M200.61 59.21H218.73V16.2L221.95 16.18C235.31 16.2 231.82 33.41 220.67 31.72L239.86 59.22H259.17L240.92 33.16C255.37 22.45 247.89 1.39 228.7 1.39H200.67L200.61 59.22V59.21Z" fill="var(--primary-logo-path)"/>
    <path d="M337.34 59.21V29.54L358.2 59.21H373.23V1.38H354.47V26.55L336.84 1.38H320.32V59.21H337.34Z" fill="var(--primary-logo-path)"/>
    <path d="M0 1.38V15.46H14.96V59.21H33.83V15.46H51.65L41.8 1.38H0Z" fill="var(--primary-logo-path)"/>
    <path d="M148.9 1.38V15.46H163.84V59.21H182.72V15.46H200.54L190.7 1.38H148.9Z" fill="var(--primary-logo-path)"/>
    <path d="M254.16 30.67C254.16 13.74 267.89 0 284.83 0C301.77 0 315.49 13.74 315.49 30.67C315.49 47.6 301.76 61.33 284.83 61.33C267.9 61.33 254.16 47.6 254.16 30.67ZM284.83 44.59C292.51 44.59 298.75 38.36 298.75 30.67C298.75 22.98 292.52 16.75 284.83 16.75C277.14 16.75 270.91 22.98 270.91 30.67C270.91 38.36 277.14 44.59 284.83 44.59Z" fill="var(--primary-logo-path)"/>
  </g>
  <defs>
    <clipPath id="clip0_6_35">
      <rect width="373.23" height="61.32" fill="var(--primary-logo-rect)"/>
    </clipPath>
  </defs>
</svg>
