<?xml version="1.0" encoding="UTF-8" standalone="no"?>
<!-- Created with Inkscape (http://www.inkscape.org/) -->

<svg
   width="638.41235mm"
   height="179.86763mm"
   viewBox="0 0 638.41235 179.86763"
   version="1.1"
   id="svg1"
   xml:space="preserve"
   xmlns="http://www.w3.org/2000/svg"
   xmlns:svg="http://www.w3.org/2000/svg"><defs
     id="defs1" /><g
     id="layer1"
     transform="translate(207.0092,-12.457972)"><g
       id="g1"><path
         style="display:inline;fill:#000000"
         d="m 64.029168,191.94563 c -1.018646,-0.19207 -2.566458,-0.59959 -3.439583,-0.90561 -0.873125,-0.30601 -2.217843,-0.93824 -2.988263,-1.40495 -0.77042,-0.4667 -1.856048,-1.3885 -2.412507,-2.04842 -0.556459,-0.65993 -1.328167,-1.8243 -1.714906,-2.5875 -0.386739,-0.76319 -0.894182,-2.30826 -1.12765,-3.43349 -0.330414,-1.59247 -0.390551,-2.9254 -0.271353,-6.01462 0.08422,-2.18281 0.389079,-5.2189 0.677455,-6.74687 0.288377,-1.52797 0.882659,-4.08781 1.320626,-5.68854 0.437968,-1.60073 1.159008,-3.78605 1.602311,-4.85626 0.443304,-1.07021 1.185387,-2.61803 1.649074,-3.43959 0.463686,-0.82155 1.983362,-2.66607 3.377056,-4.09893 2.193037,-2.25465 2.872193,-2.77451 5.047532,-3.86361 1.503592,-0.75278 3.470336,-1.48026 4.894792,-1.81052 1.309687,-0.30366 2.903123,-0.62281 3.540968,-0.70922 0.637845,-0.0864 2.611289,-0.2679 4.385431,-0.40332 2.369667,-0.18087 4.343906,-0.14827 7.43924,0.12284 2.323037,0.20347 5.004248,0.60324 5.975887,0.89102 0.969298,0.28708 2.481618,0.84474 3.360711,1.23926 1.081671,0.48542 2.102582,1.2424 3.158191,2.34171 0.857913,0.89342 1.76169,2.01475 2.0084,2.49183 0.24671,0.47707 0.67039,1.60763 0.94152,2.51235 0.27113,0.90471 0.57266,2.85719 0.67008,4.33884 0.1008,1.5331 0.0511,3.81327 -0.11533,5.29166 -0.16085,1.42877 -0.59602,4.08605 -0.96704,5.90506 -0.37103,1.81901 -1.092039,4.61698 -1.602241,6.21771 -0.510202,1.60073 -1.52589,4.07537 -2.257084,5.4992 -0.965487,1.88006 -1.870347,3.16377 -3.305234,4.68906 -1.231259,1.30884 -2.74071,2.56564 -4.005687,3.33523 -1.116443,0.67923 -3.041927,1.57895 -4.278854,1.99939 -1.236927,0.42043 -3.409034,0.93955 -4.826904,1.15359 -1.762409,0.26604 -4.524555,0.3801 -8.73125,0.36053 -3.862859,-0.018 -6.842706,-0.15861 -8.005388,-0.37783 z m 12.427684,-8.47091 c 0.540612,-0.22588 1.273053,-0.73189 1.627645,-1.12448 0.354593,-0.39258 1.04068,-1.48769 1.524639,-2.43357 0.537849,-1.05121 1.203627,-3.10838 1.712589,-5.29167 0.457966,-1.96453 1.238457,-5.83406 1.734426,-8.59896 0.495969,-2.76489 0.981413,-6.1353 1.078764,-7.4898 0.143525,-1.99695 0.09005,-2.70453 -0.282751,-3.74125 -0.350952,-0.97596 -0.67113,-1.37933 -1.352955,-1.70447 -0.53801,-0.25656 -1.578752,-0.42594 -2.617157,-0.42594 -0.980356,0 -2.040702,0.1638 -2.458303,0.37975 -0.403891,0.20886 -1.14703,0.83654 -1.651418,1.39483 -0.504388,0.5583 -1.176037,1.66734 -1.492554,2.46453 -0.316516,0.79719 -0.946271,2.93772 -1.399456,4.75673 -0.453184,1.81901 -1.28985,5.8076 -1.859257,8.86354 -0.791932,4.2502 -1.034021,6.20927 -1.02991,8.33438 0.0052,2.67243 0.03455,2.81332 0.772336,3.70331 0.688312,0.83032 0.938555,0.94149 2.440278,1.08413 0.920324,0.0874 1.807605,0.1771 1.971734,0.19929 0.164129,0.0222 0.740737,-0.14446 1.28135,-0.37035 z m 206.734848,8.60666 c -0.67945,-0.11466 -1.92339,-0.40848 -2.76429,-0.65294 -0.8409,-0.24446 -2.24951,-0.80316 -3.13025,-1.24156 -0.88073,-0.4384 -2.2362,-1.4105 -3.01216,-2.16021 -0.77595,-0.74972 -1.74888,-2.02584 -2.16205,-2.83582 -0.41318,-0.80998 -0.94396,-2.40576 -1.17952,-3.54618 -0.23556,-1.14042 -0.43405,-3.15662 -0.44108,-4.48044 -0.007,-1.32381 0.117,-3.49955 0.27564,-4.83497 0.15863,-1.33543 0.58948,-3.83574 0.95745,-5.55625 0.36797,-1.72052 1.03951,-4.25931 1.49231,-5.64176 0.45279,-1.38245 1.2987,-3.46604 1.87979,-4.63021 0.58109,-1.16416 1.50564,-2.77151 2.05457,-3.57187 0.54892,-0.80037 1.57466,-2.00061 2.27942,-2.66721 0.70476,-0.6666 1.8767,-1.62646 2.6043,-2.13302 0.72761,-0.50657 2.15636,-1.29661 3.175,-1.75566 1.01865,-0.45905 2.56646,-1.01128 3.43959,-1.22719 0.87312,-0.2159 2.3614,-0.52136 3.30729,-0.67879 0.94588,-0.15744 3.32713,-0.39339 5.29166,-0.52434 2.65671,-0.1771 4.58873,-0.14103 7.54063,0.14076 2.18281,0.20838 4.62359,0.54041 5.42396,0.73784 0.80036,0.19744 2.40771,0.84226 3.57187,1.43295 1.35159,0.68578 2.6118,1.58408 3.48649,2.48525 0.77275,0.79614 1.68141,2.10323 2.08469,2.99878 0.39318,0.87313 0.87196,2.42094 1.06396,3.43959 0.23673,1.25599 0.30406,3.04426 0.20919,5.55625 -0.0946,2.50422 -0.39502,5.03267 -0.92745,7.80521 -0.43315,2.25557 -1.21675,5.41072 -1.74131,7.01145 -0.52457,1.60073 -1.37311,3.68433 -1.88565,4.63021 -0.51253,0.94589 -1.37232,2.37464 -1.91063,3.175 -0.53831,0.80037 -1.73684,2.17834 -2.66339,3.06216 -0.92656,0.88382 -2.51809,2.09074 -3.53673,2.68203 -1.01865,0.59129 -2.86412,1.39668 -4.10104,1.78975 -1.23693,0.39307 -3.32052,0.88066 -4.63021,1.08354 -1.58113,0.24492 -4.47045,0.36 -8.59896,0.34249 -3.41974,-0.0145 -6.77363,-0.12019 -7.45309,-0.23484 z m 11.72026,-8.57344 c 0.49071,-0.20761 1.38037,-0.89222 1.97701,-1.52135 0.67038,-0.70688 1.29944,-1.75035 1.64662,-2.73138 0.309,-0.87312 0.9143,-3.01625 1.34512,-4.7625 0.43082,-1.74625 1.19573,-5.43719 1.6998,-8.20208 0.50408,-2.7649 0.98579,-6.27724 1.07048,-7.80521 0.12056,-2.17516 0.0636,-3.0159 -0.26246,-3.87364 -0.31732,-0.83479 -0.64664,-1.1921 -1.38373,-1.50132 -0.53202,-0.22319 -1.34733,-0.46999 -1.81181,-0.54844 -0.46448,-0.0785 -1.47651,0.0422 -2.24896,0.26809 -0.79172,0.23153 -1.79096,0.7756 -2.29037,1.24707 -0.48726,0.46 -1.1858,1.49121 -1.55231,2.29157 -0.36651,0.80037 -1.00978,2.7649 -1.42949,4.36563 -0.41971,1.60073 -1.24559,5.47026 -1.8353,8.59896 -0.5897,3.12869 -1.14199,6.94598 -1.22731,8.48286 -0.10478,1.88728 -0.05,3.11298 0.16885,3.77599 0.20441,0.61937 0.68015,1.22369 1.28904,1.63745 0.74552,0.50659 1.3049,0.65578 2.45884,0.65578 0.82157,0 1.89526,-0.16986 2.38598,-0.37748 z m 133.16019,8.11727 c -0.39124,-0.0655 -0.67388,-0.45617 -0.96689,-1.33648 l -0.41404,-1.24394 -0.0253,1.25678 -0.0253,1.25677 h -0.9493 c -0.94671,0 -0.94889,-0.003 -0.80229,-0.99219 0.0808,-0.5457 0.22437,-1.91492 0.31893,-3.04271 l 0.17192,-2.05052 h 1.00085 c 0.98241,0 1.00672,0.0244 1.31842,1.32373 0.17466,0.72805 0.40461,1.37753 0.511,1.44329 0.10639,0.0658 0.39399,-0.5167 0.63912,-1.29433 0.40035,-1.27006 0.53272,-1.4269 1.30133,-1.54185 0.48142,-0.072 0.94067,0.002 1.05003,0.16903 0.10692,0.16335 0.19621,1.61995 0.19844,3.23688 l 0.004,2.93987 -0.66146,-0.12645 c -0.53673,-0.1026 -0.66222,-0.28276 -0.66551,-0.95549 -0.002,-0.45598 -0.10355,-0.98597 -0.22516,-1.17776 -0.15104,-0.23821 -0.32895,0.0365 -0.56141,0.86671 -0.18716,0.66848 -0.41326,1.24822 -0.50244,1.28832 -0.0892,0.0401 -0.41092,0.0312 -0.71499,-0.0197 z m -325.54611,-0.21983 c 0,-0.0841 1.96453,-10.44224 4.36563,-23.01802 2.40109,-12.57578 4.36562,-22.96735 4.36562,-23.09238 0,-0.12504 9.01899,-0.28946 20.04219,-0.3654 11.0232,-0.0759 20.0912,-0.0936 20.15111,-0.0393 0.0599,0.0543 -0.21587,1.796 -0.61285,3.87039 -0.39699,2.0744 -0.84282,4.33718 -0.99075,5.0284 l -0.26896,1.25678 h -11.06956 -11.06955 l -0.14601,0.7276 c -0.0803,0.40018 -0.33169,1.79917 -0.55862,3.10885 -0.22694,1.30969 -0.47062,2.64914 -0.54151,2.97657 l -0.1289,0.59531 h 10.32379 c 9.85624,0 10.32379,0.0221 10.32379,0.48789 0,0.26833 -0.35564,2.26263 -0.79032,4.43177 -0.43467,2.16913 -0.84907,4.1935 -0.92089,4.49859 -0.12888,0.54752 -0.26535,0.55719 -10.51664,0.74568 -5.71234,0.10503 -10.40569,0.2126 -10.42967,0.23904 -0.024,0.0264 -0.77722,3.97713 -1.67386,8.77932 -0.89664,4.80219 -1.69538,8.99914 -1.77499,9.32656 l -0.14475,0.59532 h -8.96715 c -4.93193,0 -8.96715,-0.0688 -8.96715,-0.15296 z m 45.24375,-0.4278 c 0,-0.32328 1.91031,-10.65354 4.24514,-22.95612 2.33483,-12.30258 4.30738,-22.57669 4.38345,-22.83135 0.13016,-0.4357 1.32409,-0.46303 20.22882,-0.46303 11.04978,0 20.08563,0.0298 20.07967,0.0661 -0.006,0.0364 -0.45953,2.32833 -1.00795,5.09323 l -0.99711,5.02708 -3.8207,0.16519 c -2.10138,0.0909 -7.12468,0.18015 -11.16288,0.19844 -4.0382,0.0183 -7.34219,0.0698 -7.34219,0.1145 0,0.0447 -0.23812,1.37735 -0.52916,2.96146 -0.29105,1.5841 -0.52917,3.15488 -0.52917,3.49062 v 0.61042 h 10.33815 c 9.71292,0 10.33125,0.028 10.2241,0.46302 -0.0627,0.25466 -0.51647,2.51685 -1.00832,5.02708 l -0.89426,4.56407 h -10.38313 -10.38313 l -0.15241,0.60726 c -0.0838,0.334 -0.89606,4.59048 -1.80495,9.45886 l -1.65254,8.85158 -8.91571,0.0697 -8.91572,0.0697 z m 67.46875,0.43994 c 0,-0.0774 1.96453,-10.44822 4.36563,-23.04616 2.40109,-12.59793 4.36562,-23.01206 4.36562,-23.14251 0,-0.13735 7.04447,-0.23718 16.73676,-0.23718 h 16.73675 l 2.2471,0.62012 c 1.2359,0.34107 2.78288,0.88904 3.43772,1.21771 0.65485,0.32867 1.82001,1.21048 2.58926,1.95957 1.12035,1.09098 1.50202,1.69655 1.91823,3.04349 0.28578,0.92483 0.51756,2.35358 0.51506,3.175 -0.002,0.82142 -0.22237,2.32692 -0.48861,3.34557 -0.26625,1.01864 -0.84973,2.56646 -1.29662,3.43958 -0.44689,0.87313 -1.44741,2.19093 -2.22336,2.92845 -0.91137,0.86622 -2.16018,1.67831 -3.5275,2.2939 -1.16416,0.52412 -2.65245,1.0408 -3.30729,1.14818 l -1.19062,0.19523 1.71979,0.44191 c 0.94588,0.24306 2.21301,0.75347 2.81583,1.13426 0.60283,0.38079 1.34947,1.04826 1.65922,1.48325 0.30974,0.43499 0.73926,1.28999 0.95447,1.89998 0.21522,0.60999 0.39083,1.77872 0.39024,2.59717 -5.9e-4,0.81845 -0.34903,3.27402 -0.77432,5.45684 -0.42528,2.18281 -0.80621,4.74265 -0.84651,5.68854 -0.0437,1.02596 0.0617,1.96507 0.26124,2.32777 0.18397,0.33439 0.62492,0.71839 0.97987,0.85335 0.3926,0.14926 0.64537,0.45647 0.64537,0.78434 0,0.53372 -0.0948,0.5383 -9.71265,0.46957 l -9.71265,-0.0694 -0.2192,-0.92604 c -0.12056,-0.50932 -0.21733,-1.72561 -0.21506,-2.70287 0.002,-0.97726 0.36109,-3.89557 0.79736,-6.48513 0.47452,-2.81656 0.72977,-5.09937 0.63529,-5.68161 -0.0869,-0.53531 -0.4349,-1.23348 -0.77339,-1.55148 -0.33849,-0.31799 -1.12776,-0.67376 -1.75392,-0.79059 -0.62617,-0.11682 -2.29458,-0.14383 -3.70758,-0.06 l -2.56909,0.15241 -0.26849,1.34974 c -0.14767,0.74236 -0.80842,4.20724 -1.46833,7.69974 -0.65991,3.4925 -1.3262,6.97508 -1.48065,7.73906 l -0.28082,1.38907 h -8.97707 c -4.93739,0 -8.97708,-0.0634 -8.97708,-0.14082 z m 30.86333,-27.98878 c 0.74926,-0.38047 1.71472,-1.11932 2.14545,-1.64188 0.43074,-0.52256 0.99444,-1.6479 1.25266,-2.50076 0.45327,-1.49703 0.45239,-1.59203 -0.0255,-2.74737 -0.40442,-0.97777 -0.71341,-1.29357 -1.68891,-1.72615 -0.86343,-0.38287 -2.05188,-0.57548 -4.29311,-0.69577 -3.08612,-0.16564 -3.09974,-0.16376 -3.23672,0.44749 -0.0756,0.3376 -0.49673,2.50969 -0.93573,4.82685 -0.43899,2.31717 -0.79818,4.38734 -0.79818,4.60039 0,0.32543 0.49695,0.3667 3.10886,0.25816 2.67548,-0.11118 3.29876,-0.22562 4.47114,-0.82096 z m 82.12596,4.78335 12.65361,-23.35271 11.19574,0.0991 c 6.15765,0.0545 11.2247,0.12317 11.2601,0.15256 0.0354,0.0294 1.67182,10.04556 3.63649,22.25817 1.96467,12.2126 3.64281,22.65122 3.7292,23.19692 l 0.15708,0.99219 h -9.54825 -9.54826 v -4.10551 -4.10551 l -6.79331,0.0706 -6.79331,0.0706 -1.60721,3.96875 -1.60721,3.96875 -9.69415,0.0694 -9.69414,0.0694 z m 22.87055,4.36239 c -0.0848,-0.69122 -0.31023,-4.68285 -0.50091,-8.87027 -0.19068,-4.18743 -0.40519,-7.672 -0.47668,-7.74349 -0.0715,-0.0715 -1.84448,3.81659 -3.93997,8.64018 -2.09549,4.82358 -3.84968,8.8737 -3.89818,9.00025 -0.0485,0.12656 1.94989,0.2301 4.44088,0.2301 h 4.52908 z m 22.09641,18.87312 c 0,-0.0773 1.97175,-10.5251 4.38166,-23.21721 2.40992,-12.69212 4.44101,-23.17259 4.51353,-23.28994 0.0725,-0.11735 6.49547,-0.21337 14.27321,-0.21337 11.29188,0 14.68744,0.0811 16.85157,0.4024 1.49063,0.22132 3.46024,0.64969 4.37691,0.95195 0.91667,0.30225 2.18955,0.84179 2.82861,1.19897 0.63907,0.35718 1.79406,1.33744 2.56666,2.17836 0.92474,1.00651 1.60018,2.06405 1.97674,3.09499 0.44937,1.23025 0.599,2.3603 0.69784,5.27021 0.10914,3.21334 0.0278,4.28264 -0.61354,8.06979 -0.40664,2.4011 -1.11649,5.85231 -1.57744,7.66936 -0.46094,1.81705 -1.2502,4.2993 -1.7539,5.5161 -0.50369,1.2168 -1.49645,3.07284 -2.20613,4.12454 -0.70968,1.0517 -1.98533,2.51303 -2.83479,3.2474 -0.84946,0.73438 -2.61604,1.8708 -3.92572,2.52538 -1.30969,0.65458 -3.51235,1.47215 -4.89479,1.81681 -2.48375,0.61922 -2.70411,0.62765 -18.58698,0.71078 -8.84039,0.0463 -16.07344,0.0208 -16.07344,-0.0565 z m 27.30342,-9.84467 c 0.78466,-0.39287 1.54659,-1.06459 2.06927,-1.82428 0.45501,-0.66134 1.11329,-2.04328 1.46283,-3.07097 0.34954,-1.02769 0.98989,-3.55382 1.423,-5.61363 0.43312,-2.0598 1.03166,-5.13849 1.33011,-6.84152 0.29844,-1.70304 0.54262,-4.05049 0.54262,-5.21655 0,-1.42864 -0.14317,-2.42034 -0.43898,-3.04066 -0.32195,-0.67513 -0.7814,-1.06785 -1.72342,-1.4731 -1.08505,-0.46677 -1.72189,-0.5409 -4.10246,-0.47749 l -2.81802,0.0751 -2.58879,13.49375 c -1.42383,7.42157 -2.59487,13.81139 -2.60231,14.1996 l -0.0135,0.70585 3.10885,-0.14712 c 2.54129,-0.12025 3.3356,-0.26064 4.35082,-0.76894 z m 21.37991,7.44186 v -2.51354 h -0.92604 c -0.74965,0 -0.92604,-0.10079 -0.92604,-0.52916 0,-0.48997 0.17639,-0.52917 2.38125,-0.52917 2.20486,0 2.38125,0.0392 2.38125,0.52917 0,0.41157 -0.17639,0.52916 -0.79375,0.52916 h -0.79375 v 2.51354 c 0,2.50473 -0.002,2.51355 -0.66146,2.51355 -0.65914,0 -0.66146,-0.009 -0.66146,-2.51355 z M 91.413543,124.22371 c -1.091406,-0.18743 -2.966406,-0.59441 -4.166667,-0.90441 -1.200261,-0.31 -3.04573,-0.87369 -4.101042,-1.25264 -1.055312,-0.37896 -2.633124,-1.04793 -3.506249,-1.48662 -0.873125,-0.43868 -2.480469,-1.3965 -3.571875,-2.12849 -1.091406,-0.73198 -2.929364,-2.2153 -4.08435,-3.29625 -1.154987,-1.08096 -2.696994,-2.75402 -3.426682,-3.71791 -0.729689,-0.9639 -1.956725,-2.91177 -2.726747,-4.32861 -0.770022,-1.41683 -1.689746,-3.34574 -2.043833,-4.28646 -0.354086,-0.94072 -0.89821,-2.61709 -1.209165,-3.725266 -0.310954,-1.108176 -0.803348,-3.349842 -1.094208,-4.98148 -0.318822,-1.788496 -0.589296,-4.808075 -0.681079,-7.603581 -0.08866,-2.700459 -0.02201,-6.250757 0.159599,-8.501194 0.171512,-2.125327 0.596004,-5.515568 0.943314,-7.533869 0.34731,-2.018302 0.944262,-4.979327 1.326559,-6.580056 0.382297,-1.600729 1.124961,-4.277527 1.650365,-5.948439 0.525404,-1.670913 1.399479,-4.177837 1.942389,-5.570943 0.54291,-1.393105 1.962503,-4.48084 3.154652,-6.861632 1.192148,-2.380792 3.012814,-5.58857 4.045924,-7.128395 1.03311,-1.539825 2.975957,-4.1692 4.317437,-5.843054 1.34148,-1.673854 3.372874,-3.94938 4.51421,-5.056724 1.141336,-1.107344 3.056254,-2.800128 4.255374,-3.761743 1.199119,-0.961615 3.281261,-2.488731 4.626982,-3.393591 1.34572,-0.904861 4.115091,-2.439136 6.154157,-3.4095 2.039066,-0.970365 4.838482,-2.131867 6.220932,-2.581117 1.38245,-0.44925 3.80222,-1.071197 5.37728,-1.382104 2.6281,-0.518773 3.50979,-0.556549 10.71562,-0.459109 l 7.85189,0.106177 3.70417,0.957968 c 2.03729,0.526883 4.77573,1.427247 6.08542,2.000808 1.30968,0.573562 3.22106,1.562819 4.24749,2.198349 1.02643,0.63553 2.91126,2.107642 4.1885,3.271362 1.27724,1.163719 2.95281,3.008821 3.7235,4.100228 0.77069,1.091406 1.87533,2.936875 2.45475,4.101041 0.57942,1.164167 1.42032,3.247761 1.86867,4.630209 0.44835,1.382448 0.99667,3.466042 1.21851,4.630208 0.22183,1.164167 0.54347,3.366823 0.71477,4.894792 0.19158,1.708958 0.25256,4.50968 0.15845,7.277398 -0.0841,2.4746 -0.23271,4.707022 -0.33014,4.960938 -0.16549,0.431262 -1.1162,0.461665 -14.43635,0.461665 h -14.25919 v -3.310641 c 0,-2.44665 -0.1309,-3.775851 -0.50158,-5.09323 -0.27586,-0.980423 -0.82948,-2.377901 -1.23027,-3.105505 -0.40079,-0.727604 -1.21688,-1.839103 -1.81354,-2.469998 -0.59665,-0.630895 -1.76917,-1.495681 -2.6056,-1.921747 -0.83643,-0.426065 -2.38424,-0.960449 -3.43958,-1.187519 -1.34786,-0.290008 -2.5335,-0.361881 -3.98464,-0.241547 -1.13621,0.09422 -2.72398,0.397743 -3.52838,0.674498 -0.80441,0.276755 -2.13697,0.885311 -2.96126,1.352346 -0.82428,0.467036 -2.37847,1.690332 -3.45375,2.718436 -1.14307,1.092918 -2.65161,2.939608 -3.63217,4.446351 -0.922402,1.417388 -2.206475,3.739107 -2.853491,5.159375 -0.647015,1.420268 -1.610604,3.832462 -2.141307,5.360431 -0.530703,1.527968 -1.363669,4.445 -1.851035,6.482291 -0.487367,2.037292 -1.212083,5.609167 -1.610481,7.937501 -0.588003,3.436429 -0.72895,5.104947 -0.748744,8.863542 -0.01962,3.726096 0.07336,5.017685 0.476187,6.614583 0.275314,1.091406 0.798055,2.579688 1.161646,3.307292 0.36359,0.727604 1.20327,1.958151 1.865954,2.734548 0.81426,0.953984 1.771628,1.697042 2.953034,2.291988 0.961486,0.484197 2.448494,1.009822 3.304467,1.168056 0.85597,0.158235 2.54032,0.2877 3.74301,0.2877 1.62201,0 2.75093,-0.178238 4.37157,-0.690199 1.34078,-0.423549 2.91347,-1.181854 4.0708,-1.962808 1.03725,-0.699936 2.45697,-1.907393 3.15493,-2.683239 0.69795,-0.775846 1.71358,-2.065473 2.25696,-2.865838 0.54337,-0.800364 1.42501,-2.323738 1.95919,-3.385275 0.53418,-1.061536 1.3355,-2.936771 1.78072,-4.167187 L 122.949,80.16875 h 14.52706 c 11.72509,0 14.52707,0.06618 14.52707,0.343121 0,0.188717 -0.46182,1.706764 -1.02626,3.373438 -0.56444,1.666674 -1.39545,3.950037 -1.84669,5.074142 -0.45124,1.124104 -1.53471,3.468727 -2.40772,5.210273 -0.87301,1.741547 -2.41261,4.418678 -3.42133,5.949176 -1.00872,1.53051 -2.40205,3.53167 -3.09628,4.44702 -0.69424,0.91536 -2.58012,3.0159 -4.19084,4.66788 -1.61073,1.65197 -3.76203,3.68536 -4.78068,4.51865 -1.01864,0.83329 -2.74902,2.11704 -3.84528,2.85278 -1.09626,0.73574 -3.53704,2.10831 -5.42396,3.05015 -1.88691,0.94185 -4.74044,2.14481 -6.34117,2.67324 -1.60073,0.52844 -4.38531,1.2599 -6.18795,1.62546 -2.99531,0.60744 -3.82688,0.66234 -9.657291,0.63755 -3.871931,-0.0165 -7.159802,-0.16109 -8.364136,-0.36792 z m -283.633333,-2.54084 c 0,-0.15953 3.33844,-17.7364 7.41875,-39.059723 4.08032,-21.323322 7.3447,-38.843816 7.2542,-38.934433 -0.0905,-0.09062 -6.04832,-0.204226 -13.23959,-0.252466 -10.775,-0.07228 -13.07502,-0.150717 -13.07502,-0.445896 0,-0.197002 1.19062,-6.570772 2.64583,-14.163932 1.45521,-7.59316 2.64583,-13.851647 2.64583,-13.90775 0,-0.0561 18.81188,-0.102006 41.80417,-0.102006 39.68783,0 41.80417,0.02352 41.80417,0.464501 0,0.255475 -1.12759,6.382256 -2.50575,13.615069 -1.37816,7.232813 -2.58169,13.453163 -2.67452,13.823 l -0.16877,0.672431 h -13.33277 c -7.33303,0 -13.33307,0.02977 -13.33343,0.06615 -3.6e-4,0.03638 -1.88938,9.948334 -4.19782,22.026563 -2.30843,12.07823 -5.67165,29.728598 -7.47382,39.223042 l -3.27667,17.26262 -15.14739,0.001 c -10.8093,0.001 -15.1474,-0.0816 -15.1474,-0.28861 z m 155.575001,0.0554 c 0,-0.13148 9.65246,-19.68849 21.44991,-43.460014 C -3.3974289,54.50672 8.4606354,30.579192 11.156375,25.105961 l 4.901344,-9.951328 1.999082,-0.168984 c 1.099495,-0.09294 8.040055,-0.168985 15.423467,-0.168985 h 13.424384 l 0.15381,0.859896 c 0.0846,0.472943 2.836284,24.499429 6.114863,53.392192 3.278578,28.892763 5.961052,52.615968 5.961052,52.718228 0,0.10227 -6.786563,0.18594 -15.08125,0.18594 h -15.08125 l -0.0058,-0.72761 c -0.0032,-0.40018 -0.1785,-3.34698 -0.389602,-6.54843 -0.211102,-3.20146 -0.387095,-6.0292 -0.391096,-6.28386 -0.0066,-0.42281 -0.403623,-0.46299 -4.571335,-0.46264 -2.510235,2e-4 -9.099806,0.0787 -14.6434919,0.17455 l -10.0794291,0.17417 -2.9366446,6.77077 -2.9366447,6.77076 -14.8313217,0.0683 c -8.70596,0.0401 -14.831322,-0.0304 -14.831322,-0.17071 z M 27.120866,84.865104 C 27.121455,84.683203 26.703002,77.092968 26.19097,67.997916 25.678937,58.902864 25.172439,50.877046 25.065419,50.162767 L 24.870835,48.864076 22.43363,54.528392 C 21.093166,57.643765 17.56814,65.818411 14.600238,72.69427 L 9.2040532,85.195833 h 8.9578698 c 6.989336,0 8.958106,-0.07268 8.958943,-0.330729 z M 250.42812,121.21769 c 0,-0.41538 4.52608,-24.428022 10.05796,-53.361429 5.53187,-28.933407 10.12566,-52.673944 10.20842,-52.75675 0.0828,-0.08281 16.86757,-0.188709 37.29958,-0.235341 l 37.1491,-0.08479 -0.12512,0.746244 c -0.0688,0.410435 -1.02267,5.508745 -2.11966,11.329578 -1.09699,5.820834 -2.11924,11.207734 -2.27168,11.970889 l -0.27715,1.387555 -22.13177,0.06765 -22.13176,0.06765 -1.38019,7.14375 c -0.7591,3.929063 -1.38807,7.219627 -1.39771,7.312366 -0.01,0.09274 8.30793,0.212794 18.48347,0.266788 10.17555,0.05399 18.5738,0.170982 18.66279,0.259972 0.089,0.08899 -0.8538,5.505342 -2.09509,12.036338 -1.24129,6.530995 -2.31927,12.141629 -2.39551,12.468076 l -0.13862,0.593539 -18.70982,0.06792 -18.70982,0.06792 -1.5092,7.805208 c -0.83006,4.292865 -1.51685,7.894506 -1.52621,8.003646 -0.009,0.109141 10.35417,0.198438 23.03005,0.198438 18.32676,0 23.0219,0.06774 22.92424,0.330729 -0.0675,0.181901 -1.17827,5.896904 -2.46825,12.700004 l -2.34543,12.36927 h -38.04131 -38.04131 z m 82.2938,0.15991 c 0.005,-0.32742 4.55875,-24.407808 10.12031,-53.511976 L 352.95416,14.948956 374.65,14.86683 c 13.53546,-0.05124 23.73592,0.02795 27.11979,0.210535 2.98318,0.160963 6.61458,0.475093 8.06979,0.698066 1.45521,0.222972 3.83646,0.698211 5.29167,1.056086 1.45521,0.357875 3.64326,1.073398 4.86234,1.590051 1.21908,0.516653 2.82642,1.304568 3.57187,1.750922 0.74545,0.446355 1.93562,1.35866 2.64481,2.027344 0.70919,0.668684 1.86048,2.079601 2.55841,3.135372 0.69793,1.055771 1.5762,2.842114 1.95171,3.969652 0.64814,1.946191 0.68273,2.334796 0.68273,7.669237 0,5.027061 -0.072,5.96094 -0.68302,8.86264 -0.37565,1.783909 -1.14322,4.57267 -1.70569,6.197245 -0.56247,1.624575 -1.57828,4.065357 -2.25737,5.423959 -0.67908,1.358602 -1.98611,3.483813 -2.90451,4.722691 -0.9184,1.238878 -2.54202,3.031904 -3.60805,3.984501 -1.06603,0.952598 -2.50578,2.118961 -3.19946,2.591917 -0.69367,0.472957 -2.28564,1.316035 -3.5377,1.873507 l -2.27648,1.013587 2.47937,1.273928 c 1.51489,0.778367 3.07428,1.837499 4.0087,2.72269 0.84114,0.79682 1.90268,2.101292 2.35898,2.898828 0.45631,0.797536 1.04396,2.353565 1.3059,3.457842 0.32766,1.381319 0.47908,3.083362 0.4853,5.454986 0.005,2.043795 -0.19851,4.898272 -0.50075,7.011459 -0.28039,1.960338 -1.11383,6.751125 -1.85209,10.646205 -0.99272,5.23759 -1.34229,7.7055 -1.34229,9.47625 0,1.31686 0.12325,2.62459 0.27389,2.90606 0.16271,0.30403 0.55245,0.51178 0.96013,0.51178 0.67445,0 0.68312,0.0238 0.50506,1.38906 -0.0996,0.76398 -0.24695,1.65695 -0.32735,1.98437 l -0.14618,0.59532 H 404.0825 388.72549 l 0.16316,-4.0349 c 0.0897,-2.21919 0.46198,-5.93989 0.82721,-8.26823 0.36523,-2.32833 1.02272,-6.25739 1.46109,-8.73125 0.49528,-2.79498 0.79822,-5.412317 0.80015,-6.9131 0.002,-1.867924 -0.13179,-2.771436 -0.59221,-3.987394 -0.37413,-0.988084 -0.93936,-1.871778 -1.52135,-2.378518 -0.50932,-0.443471 -1.52136,-1.100402 -2.24896,-1.459848 -0.7276,-0.359446 -2.15635,-0.787359 -3.175,-0.950918 -1.01864,-0.163559 -4.67394,-0.375832 -8.12287,-0.471719 l -6.27079,-0.174338 -0.15012,0.627293 c -0.0826,0.345011 -1.57708,8.128231 -3.32115,17.296042 -1.74406,9.16781 -3.29817,17.29383 -3.45358,18.05781 l -0.28255,1.38907 h -15.06249 -15.06249 z m 58.69243,-60.913485 c 1.21674,-0.214131 3.01723,-0.76036 4.00107,-1.213843 1.12747,-0.519682 2.28535,-1.329351 3.13187,-2.189998 0.78746,-0.800614 1.66957,-2.076922 2.13234,-3.085275 0.43411,-0.945886 0.94039,-2.646396 1.12506,-3.778913 0.297,-1.821417 0.28187,-2.261349 -0.13103,-3.810936 -0.3154,-1.183654 -0.78311,-2.12774 -1.4421,-2.910907 -0.53642,-0.6375 -1.63016,-1.496629 -2.43052,-1.909174 -0.80037,-0.412545 -2.23887,-0.884705 -3.19667,-1.049243 -1.00347,-0.172383 -4.78554,-0.299161 -8.92465,-0.299161 h -7.18318 l -0.13488,0.595313 c -0.0742,0.327422 -0.90924,4.702968 -1.85569,9.723437 -0.94645,5.020469 -1.78326,9.396016 -1.85958,9.723438 l -0.13877,0.595313 7.34723,-3.62e-4 c 5.28747,-2.6e-4 7.96743,-0.109508 9.5595,-0.389689 z m -520.53128,60.384325 c 0.0782,-0.32742 4.66434,-24.278534 10.1915,-53.224692 5.52717,-28.946158 10.04939,-52.747749 10.04939,-52.892426 0,-0.173723 9.141854,-0.205781 26.921356,-0.09441 24.966671,0.156396 27.142276,0.205939 29.964062,0.682344 1.67349,0.282536 4.104746,0.770557 5.402793,1.084491 1.298046,0.313934 3.262578,0.928778 4.365625,1.366322 1.103047,0.437543 2.719915,1.21919 3.59304,1.736993 0.873125,0.517803 2.395911,1.728119 3.383968,2.689592 1.109935,1.08007 2.17903,2.455919 2.797527,3.600215 0.550582,1.018646 1.250768,2.804583 1.555969,3.96875 0.305201,1.164167 0.633232,3.366823 0.728958,4.894792 0.09876,1.576423 0.04569,3.979827 -0.122686,5.55625 -0.163204,1.527969 -0.54132,3.96875 -0.840259,5.423959 -0.298938,1.455208 -0.93759,3.895989 -1.419225,5.423958 -0.481636,1.527969 -1.307292,3.701296 -1.834791,4.829616 -0.527499,1.12832 -1.717268,3.211914 -2.643931,4.630208 -1.223228,1.872199 -2.398884,3.234144 -4.291019,4.970954 -1.449479,1.330491 -3.545616,2.932495 -4.722844,3.609503 -1.164167,0.669496 -2.563151,1.37308 -3.108854,1.56352 -0.545703,0.190439 -0.992188,0.439683 -0.992188,0.553876 0,0.114193 0.732785,0.577531 1.62841,1.029641 0.895625,0.452111 2.239849,1.227992 2.987165,1.724182 0.747316,0.49619 1.786253,1.413586 2.308749,2.038659 0.522495,0.625072 1.245401,1.726139 1.606456,2.446814 0.361056,0.720676 0.844172,1.905632 1.073591,2.633236 0.22942,0.727604 0.493672,2.811198 0.587227,4.630209 0.121725,2.36673 0.04698,4.323098 -0.262821,6.879167 -0.238106,1.964531 -0.896068,6.012656 -1.462137,8.995837 -0.566068,2.98318 -1.273886,6.78896 -1.572928,8.45729 -0.299041,1.66833 -0.543712,3.71441 -0.543712,4.54684 0,0.83243 0.110561,1.8043 0.24569,2.15972 0.141455,0.37205 0.602996,0.77077 1.087885,0.9398 0.693227,0.24166 0.815806,0.39951 0.693004,0.89237 -0.08206,0.32932 -0.229634,1.10479 -0.327951,1.72325 l -0.17876,1.12448 h -15.312017 -15.312017 l 2.98e-4,-2.84427 c 1.64e-4,-1.56435 0.231046,-4.63021 0.513071,-6.81302 0.282025,-2.18281 0.870491,-5.99281 1.307702,-8.46667 0.437212,-2.47385 0.933424,-5.450419 1.102695,-6.614586 0.182568,-1.255625 0.233186,-2.972224 0.12443,-4.219854 -0.132488,-1.519888 -0.391725,-2.516007 -0.934723,-3.59168 -0.413264,-0.818672 -1.177765,-1.813706 -1.698891,-2.211189 -0.521126,-0.397482 -1.581965,-0.940982 -2.357421,-1.207778 -0.775455,-0.266796 -2.512199,-0.635717 -3.859432,-0.819825 -1.693596,-0.231441 -4.085639,-0.284092 -7.751293,-0.170613 -2.915979,0.09027 -5.332225,0.198006 -5.369436,0.239409 -0.03721,0.0414 -1.628821,8.252154 -3.536911,18.246116 -1.908091,9.99396 -3.469255,18.23904 -3.469255,18.3224 0,0.0834 -6.848359,0.15156 -15.218579,0.15156 h -15.21859 z m 56.731264,-60.53042 c 1.370278,-0.144316 3.418791,-0.555351 4.552251,-0.913411 1.13346,-0.35806 2.665348,-1.085317 3.404197,-1.616127 0.738848,-0.530809 1.698435,-1.481191 2.132414,-2.111958 0.433979,-0.630767 1.037445,-1.718136 1.341036,-2.416375 0.303591,-0.698239 0.709567,-2.159393 0.90217,-3.247009 0.258674,-1.460719 0.279812,-2.35817 0.08089,-3.434245 -0.148113,-0.801219 -0.450127,-1.816352 -0.671142,-2.25585 -0.221015,-0.439499 -0.77547,-1.196475 -1.232121,-1.682169 -0.456651,-0.485695 -1.306525,-1.128932 -1.888608,-1.429416 -0.582083,-0.300483 -1.653646,-0.705356 -2.38125,-0.899716 -0.96129,-0.256783 -3.471806,-0.35424 -9.184073,-0.356522 l -7.861156,-0.0031 -0.261204,0.992187 c -0.143663,0.545703 -1.04122,5.100246 -1.994573,10.121207 -0.953353,5.020961 -1.733369,9.217914 -1.733369,9.326563 0,0.108649 2.768203,0.19548 6.151563,0.192958 3.383359,-0.0025 7.272699,-0.122661 8.642976,-0.266977 z M 149.88646,120.8729 c 0,-0.31397 4.53128,-24.272283 10.06952,-53.240702 5.53824,-28.968419 10.13197,-52.732397 10.2083,-52.808839 0.0763,-0.07644 6.92672,-0.176704 15.22309,-0.222803 l 15.08431,-0.08382 -0.15685,0.745275 c -0.0863,0.409901 -1.53062,7.934237 -3.20967,16.720747 -1.67906,8.78651 -3.01866,16.000817 -2.97691,16.031793 0.0417,0.03098 7.20636,-7.485408 15.92134,-16.703076 l 15.84543,-16.759398 h 17.8228 c 9.80254,0 17.8228,0.03405 17.8228,0.07567 0,0.04162 -3.83976,3.8914 -8.53281,8.555075 -4.69305,4.663674 -13.86086,13.699952 -20.37291,20.080617 -6.51206,6.380664 -11.84011,11.706803 -11.84011,11.835863 0,0.12906 5.28993,14.900999 11.7554,32.826531 6.46546,17.925527 11.83633,32.801057 11.93526,33.056727 0.17065,0.44106 -0.752,0.46138 -18.02157,0.39688 l -18.20144,-0.068 -6.67105,-20.72038 c -3.66907,-11.396215 -6.71878,-20.768121 -6.77712,-20.826462 -0.0583,-0.05834 -1.9731,1.764894 -4.25502,4.051633 l -4.14895,4.157707 -2.91712,15.345832 c -1.60442,8.44021 -3.04416,15.97091 -3.19943,16.7349 l -0.28231,1.38906 h -15.06249 -15.06249 z"
         id="path1" /><path
         d="m -207.00918,189.64635 c 0,-0.4338 1.84547,-10.28361 4.10104,-21.88847 2.25557,-11.60486 4.10104,-21.19165 4.10104,-21.30398 0,-0.11233 54.00187,-0.20424 120.004168,-0.20424 66.00228,0 119.942766,0.0993 119.867742,0.22072 -0.07502,0.12139 -1.993602,9.79522 -4.263502,21.49739 -2.2699,11.70218 -4.19298,21.54458 -4.27351,21.872 l -0.14643,0.59531 H -87.313902 -207.00918 Z"
         style="display:inline;fill:#ff0000"
         id="path1-4" /></g></g></svg>
